<?xml version="1.0" encoding="UTF-8"?>
<svg id="Layer_2" data-name="Layer 2" xmlns="http://www.w3.org/2000/svg" viewBox="0 0 137.13 105.49">
  <defs>
    <style>
      .cls-1, .cls-2, .cls-3, .cls-4, .cls-5, .cls-6, .cls-7, .cls-8 {
        fill: none;
        stroke-linecap: round;
        stroke-linejoin: round;
      }

      .cls-1, .cls-3, .cls-4 {
        stroke-width: 2px;
      }

      .cls-1, .cls-5, .cls-6, .cls-7, .cls-8 {
        stroke: #c66026;
      }

      .cls-9 {
        fill: #ea8747;
      }

      .cls-10 {
        fill: #fff9ca;
      }

      .cls-2, .cls-4 {
        stroke: #ffcbae;
      }

      .cls-11 {
        fill: #db763e;
      }

      .cls-3 {
        stroke: #f99062;
      }

      .cls-12 {
        fill: #fef48b;
      }

      .cls-13 {
        fill: #232322;
      }

      .cls-14 {
        fill: #efde43;
      }

      .cls-15 {
        fill: #fff558;
      }

      .cls-5 {
        stroke-width: 3px;
      }

      .cls-6 {
        stroke-width: 2.67px;
      }

      .cls-7 {
        stroke-width: 2.5px;
      }

      .cls-8 {
        stroke-width: 2.8px;
      }
    </style>
  </defs>
  <g id="fish">
    <g id="orange_fish_reg_" data-name="orange fish (reg)">
      <g id="bottom_fin" data-name="bottom fin">
        <path class="cls-12" d="M42.1,91.38s7.54,14.1,16.4,14.1-2.13-6.89-.82-12.79c0,0-10.17-1.31-14.76-2.79l-1.92-1,1.1,2.48Z"/>
        <path class="cls-14" d="M45.28,95.63c-.9-1.2-1.8-2.31-2.67-3.35,1.83,3.09,8.39,13.21,15.89,13.21,6.73,0,2-3.98-.08-8.48-4.62,2.16-10.06,2.46-13.14-1.38Z"/>
        <path class="cls-10" d="M55.22,103.59c.64,0,.64-1,0-1s-.64,1,0,1h0Z"/>
        <path class="cls-10" d="M44.71,93.23c.35.97,1.01,1.77,1.66,2.56s1.37,1.61,2.11,2.37c1.46,1.51,3.06,2.89,4.75,4.15.52.38,1.02-.48.5-.86-1.58-1.17-3.07-2.47-4.44-3.88-.67-.68-1.31-1.39-1.92-2.12s-1.36-1.54-1.7-2.48c-.22-.6-1.18-.34-.96.27h0Z"/>
      </g>
      <g id="hair">
        <path class="cls-12" d="M82.88,3.81c-21.11-9.12-48.14,1.01-48.14,1.01l2.7,14.36,56.03,15.29,14.27-13.73-.7-1.56s-3.04-6.25-24.16-15.37Z"/>
        <path class="cls-14" d="M107.04,19.18s-3.04-6.25-24.16-15.37-48.14,1.01-48.14,1.01l1.13,6.01c21.94-11.54,54.9.42,63.99,17.49l7.87-7.58-.7-1.56Z"/>
        <g>
          <line class="cls-5" x1="44.74" y1="8.23" x2="45.97" y2="18.62"/>
          <line class="cls-5" x1="53.65" y1="7.18" x2="54.17" y2="17.63"/>
          <line class="cls-5" x1="63.14" y1="6.56" x2="62.58" y2="17.01"/>
          <line class="cls-5" x1="71.96" y1="7.25" x2="70.19" y2="17.56"/>
          <line class="cls-5" x1="80.25" y1="10.68" x2="76.89" y2="20.59"/>
          <line class="cls-5" x1="88.14" y1="14.19" x2="82.58" y2="23.05"/>
          <line class="cls-5" x1="95.75" y1="19.88" x2="89.13" y2="27.98"/>
        </g>
      </g>
      <g id="body">
        <path class="cls-9" d="M133.79,38.6c-.46-1.31-1.1-2.54-1.92-3.67-.01-.01-.02-.03-.03-.04-1.05-1.45-4.46-1.37-4.46-1.37-1.61-.11-9.74,5.2-9.74,5.2-11.96,9.3-14.39,2.77-14.39,2.77l-.73-1.39c-3.66-9.89-20.87-36.25-59.31-25.99C5.42,24.19.18,51.54,0,52.48h0s0,.02,0,.02c0,0,0,.02,0,.02h0c.17.94,5.41,28.29,43.19,38.37,38.44,10.25,55.65-16.11,59.31-25.99l.73-1.39s2.03-5.42,11.43.65c.81-4.67,2.61-9.21,5.27-13.46,3.55-5.58,8.38-9.6,13.85-12.1Z"/>
        <path class="cls-9" d="M127.38,71.48s3.41.08,4.46-1.37c.01-.01.02-.03.03-.04.93-1.29,1.65-2.72,2.12-4.24,1.09-3.53,2.7-8.89,3.06-12.26.06-.3.07-.66.07-1.07,0-.41,0-.77-.07-1.07-.36-3.37-1.97-8.73-3.06-12.26-.06-.19-.13-.38-.2-.57-5.47,2.49-10.3,6.52-13.85,12.1-2.66,4.25-4.46,8.79-5.27,13.46.92.59,1.9,1.29,2.97,2.12,0,0,8.14,5.31,9.74,5.2Z"/>
        <path class="cls-11" d="M103.24,63.51s-22.02,18.59-34.68,21.18c-15.34,3.14-37.17-1.17-40.82-1.41s-5.72-1.52-5.72-1.52c0,0,9.46,5.18,12.23,6.21,1.58.59,5.16,1.67,7.95,2.5s5.55,1.44,8.38,1.86c4.01.6,9.61,1.27,12.5.89,1.13-.15,2.3-.33,3.43-.52,4.2-.71,8.32-1.88,12.28-3.45,1.2-.48,2.18-.88,2.4-.99.64-.34,6.51-4.08,7.39-4.8s4.03-3.5,5.36-5.03,4.4-5.4,5.58-7.47c.76-1.34,1.8-3.5,2.43-4.84.41-.87.83-1.72,1.28-2.57v-.03Z"/>
      </g>
      <g id="tail">
        <path class="cls-11" d="M123.51,69.76c1.67.92,3.19,1.64,3.79,1.6,0,0,3.41.08,4.46-1.37.01-.01.02-.03.03-.04.93-1.29,1.65-2.72,2.12-4.24,1.09-3.53,2.7-8.89,3.06-12.26.06-.3.07-.66.07-1.07,0-.41,0-.77-.07-1.07-.36-3.37-1.97-8.73-3.06-12.26-.05-.15-.1-.29-.16-.44-3.26,1.49-6.28,3.54-8.95,6.12,2.72,8.45,3.01,17.45-1.29,25.02Z"/>
        <path class="cls-11" d="M131.79,34.81s-.02-.03-.03-.04c-1.05-1.45-4.46-1.37-4.46-1.37-.88-.06-3.68,1.49-6.06,2.91,1.42,2.69,2.64,5.53,3.57,8.42,2.67-2.59,5.69-4.63,8.95-6.12-.47-1.36-1.12-2.64-1.97-3.8Z"/>
        <line class="cls-7" x1="114.95" y1="45.19" x2="126.21" y2="39.98"/>
        <line class="cls-6" x1="114.85" y1="59.1" x2="126.31" y2="62.69"/>
        <line class="cls-8" x1="116.25" y1="52.38" x2="129.14" y2="51.05"/>
        <path class="cls-10" d="M121.07,38.61c1.73-.3,3.22-1.25,4.86-1.82,1.44-.5,3.21-.66,4.35.57.44.47,1.14-.23.71-.71-1.19-1.28-3.05-1.44-4.66-1.03-1.91.49-3.56,1.68-5.52,2.02-.63.11-.36,1.07.27.96h0Z"/>
        <path class="cls-10" d="M131.75,39.64c.64,0,.64-1,0-1s-.64,1,0,1h0Z"/>
      </g>
      <g>
        <path class="cls-15" d="M53.22,61.01s4.14-8.44,0-18.72c0,0,5.68-8.44,11.51-7.98s7.37,14.6,7.21,18.19-1.91,14.25-5.52,15.1c-4.82,1.14-9.51-2.92-10.43-3.84l-2.76-2.76Z"/>
        <path class="cls-14" d="M64.44,34.31c-2.53-.2-5.03,1.28-7.06,3.02,1.59,8.7,8.95,22.92,2.91,29.54,1.73.76,3.77,1.23,5.83.74,3.61-.86,5.37-11.51,5.52-15.1.15-3.6-1.38-17.73-7.21-18.19Z"/>
        <line class="cls-1" x1="55.68" y1="47.98" x2="64.53" y2="45.19"/>
        <line class="cls-1" x1="55.68" y1="55.18" x2="64.53" y2="57.86"/>
        <path class="cls-1" d="M38.03,27.89s17.78,9.55,15.72,26.03-15.72,23.18-15.72,23.18"/>
      </g>
      <g id="eye">
        <ellipse class="cls-13" cx="20.75" cy="41.69" rx="2.28" ry="6.3"/>
        <path d="M22.61,38.02c-.03-.08-.06-.17-.09-.27h0s-.13-.42-.13-.42c0,0-.24-.6-.35-.83-.06-.11-.19-.3-.3-.45-.08-.12-.15-.22-.21-.27-.32-.4-.79-.39-.79-.39,0,0-.51,0-.82.42s-.4.56-.4.56c0,0-.37.68-.41.92,0,0-.27.92-.29,1.01-.02.1-.34,1.56-.28,1.79,0,0-.07.77-.06.88,0,0-.02.34,0,.44v.27s2.01-4.09,4.56,0c0,0-.19-2.89-.43-3.66Z"/>
      </g>
      <g id="shine">
        <path class="cls-4" d="M57.39,15.64s17.27.42,27.97,12.26"/>
        <line class="cls-4" x1="89.37" y1="31.98" x2="91.83" y2="34.83"/>
        <path class="cls-4" d="M42.61,79.37s7.66-4.36,9.69-10.59"/>
        <path class="cls-2" d="M6.64,60.9s5.81,11.69,14.12,16.21"/>
        <path class="cls-3" d="M70.01,88.91s12.32-1.35,24.63-14.97"/>
      </g>
    </g>
  </g>
</svg>