<?xml version="1.0" encoding="UTF-8"?>
<svg id="Layer_2" data-name="Layer 2" xmlns="http://www.w3.org/2000/svg" viewBox="0 0 95.84 72.68">
  <defs>
    <style>
      .cls-1 {
        fill: #ff5426;
      }

      .cls-2 {
        fill: #ffdca7;
      }

      .cls-3 {
        fill: #fff9ca;
      }

      .cls-4 {
        fill: #f9a63a;
      }

      .cls-5 {
        fill: #ffb541;
      }

      .cls-6 {
        fill: #ff6930;
      }

      .cls-7 {
        fill: #232322;
      }

      .cls-8 {
        fill: #ffc265;
      }
    </style>
  </defs>
  <g id="fish">
    <g id="fish_reg" data-name="fish reg">
      <g>
        <path class="cls-6" d="M40.7,59.39s.05,4.19,5.67,8.48c2.11,1.61,4.82,3.17,8.94,4.64,1,.36,2.15.16,2.9-.59.47-.46.86-1.12.92-2.06.26-4.11,0-15.48,0-15.48l-18.44,5.01Z"/>
        <path class="cls-1" d="M46.37,67.87s8.54,3.41,12.68-3.88l.08,5.87s-.03,1.61-1.24,2.26c-.84.46-1.67.72-2.45.43s-5.72-2.35-6.74-3.01-2.33-1.68-2.33-1.68Z"/>
      </g>
      <g>
        <path class="cls-6" d="M20.19,15.03s.39-5.74,3.65-9.53S36.37-.24,43.55.02s16.18,4.83,16.18,4.83c0,0,7.83,4.31,5.61,8.35,0,0-.65,4.7-4.44,6s-40.71-4.18-40.71-4.18Z"/>
        <path class="cls-1" d="M20.19,14.41C27.84.41,59.3-.56,61.69,19.21"/>
      </g>
      <g id="body">
        <path class="cls-8" d="M91.52,38.16c-.62-6.41,4.32-24.41,4.32-24.41-7.26-.89-9.83,2.54-11.35,4.34-1.21,1.44-2.53,3.77-3.29,5.59-.56,1.36-1.27,2.65-2.13,3.83-1.12,1.53-2.66,3.41-3.89,4.02-2.11,1.05-3.72,1.37-6.41-1.45-1.56-1.63,0,0-7.24-11.38-7.24-11.38-18.83-10.76-18.83-10.76C13.11,6.92,0,38.16,0,38.16c0,0,13.11,31.24,42.7,30.21,0,0,11.59.62,18.83-10.76,7.24-11.38,5.68-9.75,7.24-11.38,2.7-2.81,4.3-2.49,6.41-1.45,1.22.61,2.77,2.49,3.89,4.02.87,1.19,1.57,2.48,2.13,3.83.76,1.83,2.08,4.15,3.29,5.59,1.52,1.81,4.09,5.23,11.35,4.34,0,0-4.94-18-4.32-24.41Z"/>
        <path class="cls-5" d="M.09,38.16h-.09s8.45,20.1,27.08,27.52v.02s.55.22.55.22h.03c4.44,1.68,9.44,2.64,15.04,2.45,0,0,11.59.62,18.83-10.76,3.55-5.58,4.98-8.03,5.71-9.27C48.54,67.33,16.97,55.83.09,38.16Z"/>
        <path class="cls-3" d="M21.38,13.46C6.72,22.18,0,38.17,0,38.17c0,0,8.62,20.51,27.63,27.74,2.03-2.79,3.69-5.95,4.95-9.2l.2.27,1.22-4.54c.07-.25.14-.5.2-.75l.13-.47h-.02c.1-.4.21-.82.3-1.23,2.5-13.34-4.04-26.68-13.23-36.54Z"/>
        <path class="cls-2" d="M32.79,56.99C20.55,54.23,8.55,46.98.17,38.21h-.09s8.59,20.44,27.53,27.7c2.36-2.44,4.04-5.42,5.17-8.93Z"/>
        <path class="cls-5" d="M94.7,58.19c-7.35-4.14-11.03-12.22-19.88-13.83l-1.09-.19.86.38c.19.08.39.17.59.27,1.22.61,2.77,2.49,3.89,4.02.87,1.19,1.57,2.48,2.13,3.83.76,1.83,2.08,4.15,3.29,5.59,1.52,1.81,4.09,5.23,11.35,4.34,0,0-.49-1.78-1.14-4.43Z"/>
        <path class="cls-4" d="M31.69,65.83c2.08.38,4.12.93,6.2,1.29,1.91.33,3.88.52,5.79.06.94-.23.54-1.67-.4-1.45-1.76.43-3.63.19-5.39-.13-1.95-.35-3.86-.86-5.81-1.22-.94-.17-1.35,1.27-.4,1.45h0Z"/>
      </g>
      <g id="eye">
        <ellipse class="cls-7" cx="18.7" cy="32.84" rx="2.28" ry="6.3"/>
        <path d="M20.55,29.18c-.03-.08-.06-.17-.09-.27h0s-.13-.42-.13-.42c0,0-.24-.6-.35-.83-.06-.11-.19-.3-.3-.45-.08-.12-.15-.22-.21-.27-.32-.4-.79-.39-.79-.39,0,0-.51,0-.82.42s-.4.56-.4.56c0,0-.37.68-.41.92,0,0-.27.92-.29,1.01-.02.1-.34,1.56-.28,1.79,0,0-.07.77-.06.88,0,0-.02.34,0,.44v.27s2.01-4.09,4.56,0c0,0-.19-2.89-.43-3.66Z"/>
      </g>
      <g>
        <path class="cls-6" d="M35.4,42.12l-1.1-6.06s4.23-5.26,10.49-6.44,6.58,8.13,6.58,8.13c0,0,.54,6.47-3.4,7.2s-8.09-1.01-8.09-1.01l-4.47-1.82Z"/>
        <path class="cls-1" d="M34.29,36.06s12.39,7.16,17.07,1.69c0,0-.11,4.8-1.25,5.83s-1.31,1.26-2.15,1.37-2.49.24-3.53.1-3.17-.62-3.65-.78-3.3-1.3-3.3-1.3l-2.09-.85-1.1-6.06Z"/>
      </g>
      <g>
        <path class="cls-3" d="M35.72,10.59c3.94-.16,8.01-.35,11.8.9,3.41,1.12,6.78,3.26,9.11,6,.46.55,1.25-.24.79-.79-2.38-2.8-5.8-4.97-9.25-6.17-3.98-1.39-8.29-1.22-12.45-1.05-.71.03-.72,1.14,0,1.11h0Z"/>
        <path class="cls-3" d="M58.35,19.76c.72,0,.72-1.11,0-1.11s-.72,1.11,0,1.11h0Z"/>
        <path class="cls-3" d="M35.8,44.4c.07,1.92.15,3.98-.8,5.72-.23.42.42.8.65.38,1.01-1.87.97-4.04.9-6.1,0-.2-.17-.38-.38-.38s-.38.17-.38.38h0Z"/>
        <path class="cls-3" d="M35.82,44.02c.69.71,1.62,1.21,2.6,1.37.29.05.58.08.87.07.2,0,.38-.17.38-.38s-.16-.38-.38-.38c-.11,0-.22,0-.34,0-.06,0-.11,0-.17-.01-.03,0-.05,0-.08,0-.04,0,.04,0,.04,0-.02,0-.04,0-.06,0-.22-.03-.44-.09-.65-.15-.11-.03-.21-.07-.32-.11-.02,0-.03-.01-.05-.02-.04-.02.03.01.03.01-.02-.01-.05-.02-.07-.03-.06-.02-.11-.05-.16-.08-.2-.1-.39-.22-.58-.35-.03-.02-.06-.04-.08-.06-.01,0-.02-.02-.03-.02-.04-.03.05.04.01.01-.05-.04-.1-.08-.15-.12-.1-.08-.19-.17-.28-.27-.14-.14-.4-.15-.53,0s-.15.38,0,.53h0Z"/>
        <path class="cls-3" d="M40.43,45.73c.48,0,.48-.75,0-.75s-.48.75,0,.75h0Z"/>
        <path class="cls-3" d="M36.17,44.48c.48,0,.48-.75,0-.75s-.48.75,0,.75h0Z"/>
        <path class="cls-3" d="M35.75,43.8l.08.64c0,.05,0,.1.03.14.02.05.04.09.08.12.03.04.07.06.12.08.04.02.09.03.14.03h.1c.06-.03.12-.06.17-.11l.06-.08c.03-.06.05-.12.05-.19l-.08-.64c0-.05,0-.1-.03-.14-.02-.05-.04-.09-.08-.12-.03-.04-.07-.06-.12-.08-.04-.02-.09-.03-.14-.03h-.1c-.06.03-.12.06-.17.11l-.06.08c-.03.06-.05.12-.05.19h0Z"/>
        <path class="cls-3" d="M82.8,26c.81-2.39,2.3-4.69,4-6.54,1.8-1.96,4.1-3.52,6.73-4.06.95-.19.55-1.64-.4-1.45-2.86.59-5.44,2.31-7.4,4.45s-3.49,4.56-4.39,7.2c-.31.92,1.14,1.31,1.45.4h0Z"/>
      </g>
    </g>
  </g>
</svg>