<?xml version="1.0" encoding="UTF-8"?>
<svg id="Layer_2" data-name="Layer 2" xmlns="http://www.w3.org/2000/svg" viewBox="0 0 95.84 75.01">
  <defs>
    <style>
      .cls-1 {
        fill: #a5b7ab;
      }

      .cls-2 {
        stroke: #5b7a56;
      }

      .cls-2, .cls-3, .cls-4, .cls-5 {
        fill: none;
        stroke-linecap: round;
        stroke-linejoin: round;
      }

      .cls-3 {
        stroke: #232322;
      }

      .cls-3, .cls-5 {
        stroke-width: .75px;
      }

      .cls-4 {
        stroke: #6a8766;
      }

      .cls-6 {
        fill: #668461;
      }

      .cls-7 {
        fill: #bdd6c6;
      }

      .cls-8 {
        fill: #5b7a56;
      }

      .cls-9 {
        fill: #4d7746;
      }

      .cls-10 {
        fill: #7d9979;
      }

      .cls-5 {
        stroke: #4d6649;
      }

      .cls-11 {
        fill: #4d6649;
      }
    </style>
  </defs>
  <g id="fish">
    <g id="fish_sick" data-name="fish sick">
      <g>
        <path class="cls-9" d="M43.37,61.72s.05,4.19,5.67,8.48c2.11,1.61,4.82,3.17,8.94,4.64,1,.36,2.15.16,2.9-.59.47-.46.86-1.12.92-2.06.26-4.11,0-15.48,0-15.48l-18.44,5.01Z"/>
        <path class="cls-11" d="M49.05,70.2s8.54,3.41,12.68-3.88l.08,5.87s-.03,1.61-1.24,2.26c-.84.46-1.67.72-2.45.43s-5.72-2.35-6.74-3.01-2.33-1.68-2.33-1.68Z"/>
      </g>
      <g>
        <path class="cls-8" d="M19.22,15.03s.39-5.74,3.65-9.53S35.4-.24,42.58.02s16.18,4.83,16.18,4.83c0,0,7.83,4.31,5.61,8.35,0,0-.65,4.7-4.44,6s-40.71-4.18-40.71-4.18Z"/>
        <path class="cls-11" d="M19.22,14.41C26.87.41,58.33-.56,60.72,19.21"/>
      </g>
      <path class="cls-10" d="M91.52,38.1c-.62-6.41,4.32-24.41,4.32-24.41-7.26-.89-9.83,2.54-11.35,4.34-1.21,1.44-2.53,3.77-3.29,5.59-.56,1.36-1.27,2.65-2.13,3.83-1.12,1.53-2.66,3.41-3.89,4.02-2.11,1.05-3.72,1.37-6.41-1.45-1.56-1.63,0,0-7.24-11.38-7.24-11.38-18.83-10.76-18.83-10.76C13.11,6.86,0,38.1,0,38.1c0,0,13.11,31.24,42.7,30.21,0,0,11.59.62,18.83-10.76,7.24-11.38,5.68-9.75,7.24-11.38,2.7-2.81,4.3-2.49,6.41-1.45,1.22.61,2.77,2.49,3.89,4.02.87,1.19,1.57,2.48,2.13,3.83.76,1.83,2.08,4.15,3.29,5.59,1.52,1.81,4.09,5.23,11.35,4.34,0,0-4.94-18-4.32-24.41Z"/>
      <path class="cls-6" d="M.09,38.1h-.09s8.45,20.1,27.08,27.52v.02s.55.22.55.22h.03c4.44,1.68,9.44,2.64,15.04,2.45,0,0,11.59.62,18.83-10.76,3.55-5.58,4.98-8.03,5.71-9.27C48.54,67.28,16.97,55.78.09,38.1Z"/>
      <path class="cls-7" d="M21.38,13.4C6.72,22.12,0,38.12,0,38.12c0,0,8.62,20.51,27.63,27.74,2.03-2.79,3.69-5.95,4.95-9.2l.2.27,1.22-4.54c.07-.25.14-.5.2-.75l.13-.47h-.02c.1-.4.21-.82.3-1.23,2.5-13.34-4.04-26.68-13.23-36.54Z"/>
      <path class="cls-1" d="M32.79,56.93C20.55,54.17,8.55,46.93.17,38.16h-.09s8.59,20.44,27.53,27.7c2.36-2.44,4.04-5.42,5.17-8.93Z"/>
      <path class="cls-6" d="M94.7,58.15c-7.35-4.14-11.03-12.22-19.88-13.83l-1.09-.19.86.38c.19.08.39.17.59.27,1.22.61,2.77,2.49,3.89,4.02.87,1.19,1.57,2.48,2.13,3.83.76,1.83,2.08,4.15,3.29,5.59,1.52,1.81,4.09,5.23,11.35,4.34,0,0-.49-1.78-1.14-4.43Z"/>
      <g>
        <path class="cls-8" d="M36.1,44.43l-1.1-6.06s4.23-5.26,10.49-6.44,6.58,8.13,6.58,8.13c0,0,.54,6.47-3.4,7.2s-8.09-1.01-8.09-1.01l-4.47-1.82Z"/>
        <path class="cls-11" d="M35,38.37s12.39,7.16,17.07,1.69c0,0-.11,4.8-1.25,5.83s-1.31,1.26-2.15,1.37-2.49.24-3.53.1-3.17-.62-3.65-.78-3.3-1.3-3.3-1.3l-2.09-.85-1.1-6.06Z"/>
      </g>
      <g>
        <path class="cls-9" d="M8.83,32.93c.28.1.56.21.84.33.15.06.14.06-.05-.02.07.03.14.06.21.09.14.06.27.12.41.19.54.25,1.08.53,1.6.82s1.03.61,1.53.94c.25.17.49.34.74.52.12.09.25.17.36.27-.3-.26.08.06.14.11.32.26.63.44,1.06.44.37,0,.81-.16,1.06-.44.5-.54.66-1.6,0-2.12-2.16-1.72-4.51-3.06-7.1-4.02-.74-.27-1.68.3-1.85,1.05-.19.85.26,1.55,1.05,1.85h0Z"/>
        <path class="cls-9" d="M9.86,37.62c2.04-2.45,4.26-4.75,6.63-6.88.58-.53.58-1.59,0-2.12-.62-.57-1.5-.56-2.12,0-2.37,2.13-4.58,4.43-6.63,6.88-.5.6-.63,1.54,0,2.12.55.51,1.58.64,2.12,0h0Z"/>
        <path class="cls-5" d="M31.17,64.69s3.17,2.38,13.44,1.62"/>
        <path class="cls-5" d="M93.76,15.2s-7.23.27-10.72,7.86-5.71,9.47-7.23,9.73"/>
        <path class="cls-11" d="M72.48,35.98c1.93,0,1.93-3,0-3s-1.93,3,0,3h0Z"/>
        <path class="cls-11" d="M37.4,47.84c.64,0,.64-1,0-1s-.64,1,0,1h0Z"/>
        <path class="cls-11" d="M38.59,38.34c.64,0,.64-1,0-1s-.64,1,0,1h0Z"/>
        <path class="cls-11" d="M40.85,37.27c.64,0,.64-1,0-1s-.64,1,0,1h0Z"/>
        <path class="cls-11" d="M41.32,39.76c.64,0,.64-1,0-1s-.64,1,0,1h0Z"/>
        <path class="cls-11" d="M40.02,49.92c.64,0,.64-1,0-1s-.64,1,0,1h0Z"/>
        <path class="cls-11" d="M44.48,49.44c.64,0,.64-1,0-1s-.64,1,0,1h0Z"/>
        <path class="cls-2" d="M32.79,11.66s13.67-4.09,21.41,2.86"/>
        <path class="cls-3" d="M5.4,46.45s6.14-7.59,13.44,3.5"/>
        <path class="cls-4" d="M42.81,31.36s4.53-1.69,7.31.51"/>
      </g>
    </g>
  </g>
</svg>