<svg width="326" height="226" viewBox="0 0 326 226" fill="none" xmlns="http://www.w3.org/2000/svg">
<path d="M318.95 71.6642C318.95 71.6642 274.361 32.1859 269.115 26.481C263.851 20.776 252.01 12.4278 245.871 7.61659C239.731 2.7864 213.731 0.029005 213.731 0.029005C209.15 -0.351325 205.14 3.05263 204.76 7.65462C203.809 19.0455 198.051 40.325 169.199 46.9237H156.123C127.271 40.306 121.531 19.0455 120.562 7.65462C120.182 3.07164 116.171 -0.351325 111.591 0.029005C111.591 0.029005 85.59 2.7864 79.4509 7.61659C73.3119 12.4468 61.4709 20.776 56.2061 26.481C50.9414 32.1859 6.37149 71.6642 6.37149 71.6642C-3.62586 78.8144 6.37149 87.3718 6.37149 87.3718C6.37149 87.3718 14.9434 95.2256 27.7916 112.359C40.6399 129.493 49.5539 119.148 49.5539 119.148C49.5539 119.148 58.4679 111.656 70.613 98.0781C70.727 97.945 70.86 97.8119 70.9741 97.6787C76.0868 92.0118 85.5139 95.72 85.4379 103.365C85.2859 122.438 86.3122 156.116 85.59 185.383C84.4876 229.653 92.7364 225.203 92.7364 225.203H232.623C232.623 225.203 240.853 229.653 239.77 185.383C239.047 156.116 240.093 122.438 239.922 103.365C239.865 95.72 249.273 92.0118 254.385 97.6787C254.499 97.8119 254.632 97.945 254.747 98.0781C266.873 111.637 275.806 119.148 275.806 119.148C275.806 119.148 284.72 129.512 297.568 112.359C310.416 95.2256 318.988 87.3718 318.988 87.3718C318.988 87.3718 328.985 78.7954 318.988 71.6642H318.95Z" fill="#7C8DC4"/>
<path d="M92.6984 225.203C92.6984 225.203 84.4687 229.653 85.552 185.383C86.2743 156.116 85.2289 122.438 85.4 103.365C85.457 95.72 76.0488 92.0118 70.9361 97.6787C70.8221 97.8119 70.689 97.945 70.575 98.0781C58.449 111.637 49.516 119.148 49.516 119.148C49.516 119.148 40.602 129.512 27.7537 112.359C14.9054 95.2256 6.33352 87.3718 6.33352 87.3718C6.33352 87.3718 -3.66382 78.7954 6.33352 71.6642C6.33352 71.6642 50.9224 32.1859 56.1682 26.481C61.4329 20.776 73.2739 12.4278 79.413 7.61659C85.552 2.7864 111.553 0.029005 111.553 0.029005C116.133 -0.351325 120.144 3.05263 120.524 7.65462C121.455 18.7603 126.948 39.26 153.956 46.4103C153.956 46.4103 130.502 189.814 202.061 225.222H92.6604L92.6984 225.203Z" fill="#7381AD"/>
<path d="M119.288 3.87029C119.288 3.87029 119.649 18.2277 128.069 29.3524C138.371 42.9682 165.835 58.9611 189.84 36.1793C197.138 29.2383 202.232 20.3005 205.121 10.6592C206.014 7.67359 206.813 4.64996 207.117 2.5011" stroke="#4C5D93" stroke-width="4" stroke-linecap="round" stroke-linejoin="round"/>
<path d="M2.00012 80.1455C2.00012 80.1455 34.7861 120.765 38.3973 121.506" stroke="#4C5D93" stroke-width="4" stroke-linecap="round" stroke-linejoin="round"/>
<path d="M323.398 81.0774C323.398 81.0774 292.949 120.175 287.628 121.202" stroke="#4C5D93" stroke-width="4" stroke-linecap="round" stroke-linejoin="round"/>
<path d="M88.6691 221.761H236.615" stroke="#4C5D93" stroke-width="4.11" stroke-linecap="round" stroke-linejoin="round"/>
<path d="M85.552 163.191H239.732" stroke="#FFEA92" stroke-width="4" stroke-miterlimit="10"/>
<path d="M16.9961 62.7074L61.3759 107.111" stroke="#FFEA92" stroke-width="4" stroke-miterlimit="10"/>
<path d="M268.697 112.664L306.615 59.912" stroke="#FFEA92" stroke-width="4" stroke-miterlimit="10"/>
<path d="M45.3535 35.7611L73.9581 64.3809C80.4392 70.8655 88.745 75.1632 97.773 76.6846C124.002 81.0964 182.104 88.2276 234.258 76.3993C239.884 75.1252 244.863 71.8163 248.36 67.2144L276.11 30.7217" stroke="#FFEA92" stroke-width="4" stroke-miterlimit="10"/>
<path d="M85.552 118.806H239.732" stroke="#FFEA92" stroke-width="4" stroke-miterlimit="10"/>
<path d="M85.552 203.372H239.732" stroke="#FFEA92" stroke-width="4" stroke-miterlimit="10"/>
<path d="M227.434 96.3666C227.434 96.3666 230.57 182.663 225.705 197.287C220.839 211.911 217.361 209.819 217.361 209.819" stroke="#DDEAEB" stroke-width="3" stroke-linecap="round" stroke-linejoin="round"/>
<path d="M222.892 9.09985C222.892 9.09985 241.632 11.591 258.187 28.7819" stroke="#DDEAEB" stroke-width="2" stroke-linecap="round" stroke-linejoin="round"/>
</svg>
