<svg width="254" height="272" viewBox="0 0 254 272" fill="none" xmlns="http://www.w3.org/2000/svg">
<path d="M236.791 71.2437V23.7713C236.791 10.6561 226.133 0 212.962 0H43.6911C30.5439 0 19.8617 10.6327 19.8617 23.7713V71.2671L17.0445 267.41H87.8048L128.326 95.0384L168.848 267.41H239.608L236.791 71.2671V71.2437Z" fill="#12547C"/>
<path d="M39.3009 238.392H19.8617L23.7589 190.592" stroke="#0B4B6B" stroke-width="3" stroke-linecap="round" stroke-linejoin="round"/>
<path d="M90.716 238.392H16.1288C7.22113 238.392 0 245.596 0 254.482V255.91C0 264.797 7.22113 272 16.1288 272H90.716C99.6237 272 106.845 264.797 106.845 255.91V254.482C106.845 245.596 99.6237 238.392 90.716 238.392Z" fill="#6C9FBC"/>
<path d="M237.871 237.128H159.316C150.409 237.128 143.188 244.331 143.188 253.217V255.887C143.188 264.773 150.409 271.977 159.316 271.977H237.871C246.779 271.977 254 264.773 254 255.887V253.217C254 244.331 246.779 237.128 237.871 237.128Z" fill="#6C9FBC"/>
<path d="M236.791 18.3848H19.8617V40.3527H236.791V18.3848Z" fill="#685432"/>
<path d="M194.157 8.40784H180.023C177.417 8.40784 175.304 10.5154 175.304 13.1153V45.6457C175.304 48.2455 177.417 50.3531 180.023 50.3531H194.157C196.763 50.3531 198.875 48.2455 198.875 45.6457V13.1153C198.875 10.5154 196.763 8.40784 194.157 8.40784Z" fill="#0B4B6B"/>
<path d="M75.0097 6.65125H63.412C59.8074 6.65125 56.8853 9.56621 56.8853 13.162V42.0857C56.8853 45.6815 59.8074 48.5965 63.412 48.5965H75.0097C78.6143 48.5965 81.5364 45.6815 81.5364 42.0857V13.162C81.5364 9.56621 78.6143 6.65125 75.0097 6.65125Z" fill="#0B4B6B"/>
<path d="M23.7589 96.9354C23.7589 96.9354 59.8904 91.338 61.1581 68.6206" stroke="#0B4B6B" stroke-width="4" stroke-linecap="round" stroke-linejoin="round"/>
<path d="M233.504 96.9354C233.504 96.9354 197.373 91.338 196.105 68.6206" stroke="#0B4B6B" stroke-width="4" stroke-linecap="round" stroke-linejoin="round"/>
<path d="M134.149 79.1362V95.015L152.25 171.997" stroke="#0B4B6B" stroke-width="3" stroke-linecap="round" stroke-linejoin="round"/>
<path d="M233.504 119.653L234.49 223.427" stroke="#0B4B6B" stroke-width="3" stroke-linecap="round" stroke-linejoin="round"/>
<path d="M146.216 23.3732H119.194C115.875 23.3732 113.184 26.0575 113.184 29.3687C113.184 32.6799 115.875 35.3642 119.194 35.3642H146.216C149.535 35.3642 152.226 32.6799 152.226 29.3687C152.226 26.0575 149.535 23.3732 146.216 23.3732Z" fill="#EBED9F" stroke="#DFE283" stroke-width="2.68" stroke-linecap="round" stroke-linejoin="round"/>
</svg>
