<svg width="338" height="234" viewBox="0 0 338 234" fill="none" xmlns="http://www.w3.org/2000/svg">
<path d="M330.511 74.1898C330.511 74.1898 284.295 33.3202 278.858 27.4142C273.401 21.5082 261.129 12.8657 254.766 7.88502C248.403 2.8846 221.454 0.0300272 221.454 0.0300272C216.706 -0.363707 212.549 3.16021 212.155 7.92439C211.17 19.7167 205.201 41.7461 175.297 48.5774H161.744C131.84 41.7264 125.891 19.7167 124.886 7.92439C124.492 3.1799 120.336 -0.363707 115.588 0.0300272C115.588 0.0300272 88.6389 2.8846 82.2759 7.88502C75.913 12.8854 63.6401 21.5082 58.1833 27.4142C52.7265 33.3202 6.53099 74.1898 6.53099 74.1898C-3.831 81.592 6.53099 90.451 6.53099 90.451C6.53099 90.451 15.4155 98.5816 28.7324 116.319C42.0494 134.057 51.2885 123.347 51.2885 123.347C51.2885 123.347 60.5276 115.591 73.1156 101.535C73.2338 101.397 73.3717 101.259 73.4899 101.121C78.7891 95.2545 88.5601 99.0934 88.4813 107.007C88.3237 126.753 89.3875 161.618 88.6389 191.916C87.4963 237.747 96.0459 233.14 96.0459 233.14H241.035C241.035 233.14 249.565 237.747 248.442 191.916C247.693 161.618 248.777 126.753 248.6 107.007C248.541 99.0934 258.292 95.2545 263.591 101.121C263.709 101.259 263.847 101.397 263.965 101.535C276.534 115.571 285.792 123.347 285.792 123.347C285.792 123.347 295.032 134.077 308.348 116.319C321.665 98.5816 330.55 90.451 330.55 90.451C330.55 90.451 340.912 81.5723 330.55 74.1898H330.511Z" fill="#A3EFE8"/>
<path d="M97.4249 233.14C97.4249 233.14 88.895 237.747 90.0179 191.916C90.7664 161.618 89.683 126.753 89.8603 107.007C89.9194 99.0934 80.1681 95.2545 74.8689 101.121C74.7507 101.259 74.6128 101.397 74.4946 101.535C61.9262 115.571 52.6674 123.347 52.6674 123.347C52.6674 123.347 43.4283 134.077 30.1114 116.319C16.7945 98.5816 7.90995 90.451 7.90995 90.451C7.90995 90.451 -2.45203 81.5723 7.90995 74.1898C7.90995 74.1898 54.1252 33.3202 59.5623 27.4142C65.0191 21.5082 77.2919 12.8657 83.6549 7.88502C90.0179 2.8846 116.967 0.0300272 116.967 0.0300272C121.715 -0.363707 125.871 3.16021 126.265 7.92439C127.23 19.4214 132.924 40.6437 160.917 48.0459C160.917 48.0459 136.607 196.503 210.776 233.16H97.3855L97.4249 233.14Z" fill="#9AE5E5"/>
<path d="M123.566 4.0068C123.566 4.0068 123.941 18.8702 132.668 30.387C143.345 44.4826 171.811 61.0391 196.691 37.4545C204.256 30.2688 209.535 21.0161 212.53 11.0349C213.456 7.94413 214.283 4.81395 214.598 2.58936" stroke="#D0F2B1" stroke-width="4" stroke-linecap="round" stroke-linejoin="round"/>
<path d="M2.00006 82.9701C2.00006 82.9701 35.9819 125.021 39.7248 125.789" stroke="#D0F2B1" stroke-width="4" stroke-linecap="round" stroke-linejoin="round"/>
<path d="M335.12 83.9347C335.12 83.9347 303.561 124.411 298.046 125.474" stroke="#D0F2B1" stroke-width="4" stroke-linecap="round" stroke-linejoin="round"/>
<path d="M91.8302 229.577H245.172" stroke="#D0F2B1" stroke-width="4.11" stroke-linecap="round" stroke-linejoin="round"/>
<path d="M238.533 101.357C238.533 101.357 241.784 190.696 236.74 205.835C231.697 220.974 228.092 218.808 228.092 218.808" stroke="white" stroke-width="3" stroke-linecap="round" stroke-linejoin="round"/>
<path d="M230.949 9.42053C230.949 9.42053 250.373 11.9995 267.531 29.7963" stroke="white" stroke-width="2" stroke-linecap="round" stroke-linejoin="round"/>
</svg>
