<?xml version="1.0" encoding="UTF-8"?>
<svg id="Layer_2" data-name="Layer 2" xmlns="http://www.w3.org/2000/svg" viewBox="0 0 288.68 261.88">
  <defs>
    <style>
      .cls-1 {
        fill: #ff8585;
      }

      .cls-2 {
        fill: #ff1515;
        stroke: #fff;
        stroke-miterlimit: 10;
      }

      .cls-3 {
        fill: #d10000;
        opacity: .3;
      }
    </style>
  </defs>
  <g id="heart">
    <g>
      <path class="cls-2" d="M288.18,71.7C288.18,32.38,255.98.5,216.26.5s-69.98,29.99-71.83,67.68h-.18C142.4,30.49,110.95.5,72.42.5S.5,32.38.5,71.7c0,17.11,6.1,32.8,16.26,45.08h0l.07.08c.1.12.21.24.31.37l117.42,138.81c6.08,7.19,16.66,7.12,22.66-.15l114.73-139.1h0c10.16-12.28,16.26-27.97,16.26-45.08Z"/>
      <path class="cls-1" d="M113.51,39.7c-4.65-5-9.69-10.07-15.85-13.18-7.4-3.73-15.58-4.89-23.8-4.97-14.17-.14-28.57,2.39-39.13,12.52-12.57,12.05,6.54,31.12,19.09,19.09,1.13-1.09,1.62-1.54,3.81-2.55,2.08-.96-1.34.39.87-.28,1.19-.36,2.39-.71,3.61-.97,3.51-.76,6.98-.84,11.74-.8,3.84.04,7.46.06,10.87,1.65,3.82,1.78,6.45,5.1,9.69,8.59,4.97,5.34,14.07,5.02,19.09,0,5.32-5.32,4.98-13.74,0-19.09h0Z"/>
      <path class="cls-1" d="M29.55,89.77c17.37,0,17.4-27,0-27s-17.4,27,0,27h0Z"/>
      <path class="cls-3" d="M148.79,259.81S279.72,104.34,204.89,2.25c38.54-6.49,87.78,24.21,82.29,77.06-1.05,10.08-4.54,19.75-9.97,28.31-5.32,8.38-14.78,20.92-24.71,32.73-18.15,21.57-48.24,58.49-48.24,58.49l-45.14,54.52c-2.66,3.21-6.28,5.52-10.34,6.47-.62.14.71-.14,0,0Z"/>
      <path class="cls-1" d="M192.48,173.52c-13.54,15.75-27.08,31.51-40.63,47.26-6.26,7.29,4.3,17.94,10.61,10.61,13.54-15.75,27.08-31.51,40.63-47.26,6.26-7.29-4.3-17.94-10.61-10.61h0Z"/>
    </g>
  </g>
</svg>