<svg width="225" height="242" viewBox="0 0 225 242" fill="none" xmlns="http://www.w3.org/2000/svg">
<path d="M209.756 63.3859V21.1495C209.756 9.4808 200.314 0 188.647 0H38.7027C27.0566 0 17.594 9.45996 17.594 21.1495V63.4067L15.0984 237.916H77.7798L113.675 84.5562L149.57 237.916H212.252L209.756 63.4067V63.3859Z" fill="#8AA9BF"/>
<path d="M34.8138 212.099H17.594L21.0463 169.571" stroke="#7994A5" stroke-width="3" stroke-linecap="round" stroke-linejoin="round"/>
<path d="M80.3586 212.099H14.2874C6.39667 212.099 0 218.508 0 226.414V227.685C0 235.591 6.39667 242 14.2874 242H80.3586C88.2493 242 94.646 235.591 94.646 227.685V226.414C94.646 218.508 88.2493 212.099 80.3586 212.099Z" fill="#D8E3EA"/>
<path d="M210.713 210.974H141.127C133.236 210.974 126.839 217.383 126.839 225.289V227.664C126.839 235.57 133.236 241.979 141.127 241.979H210.713C218.603 241.979 225 235.57 225 227.664V225.289C225 217.383 218.603 210.974 210.713 210.974Z" fill="#D8E3EA"/>
<path d="M170.409 6.08435H165.48C163.171 6.08435 161.3 7.95948 161.3 10.2726V24.5667C161.3 26.8798 163.171 28.7549 165.48 28.7549H170.409C172.717 28.7549 174.589 26.8798 174.589 24.5667V10.2726C174.589 7.95948 172.717 6.08435 170.409 6.08435Z" fill="#7994A5"/>
<path d="M63.4717 5.12585H61.1216C57.9286 5.12585 55.3401 7.71932 55.3401 10.9185V22.0038C55.3401 25.203 57.9286 27.7964 61.1216 27.7964H63.4717C66.6647 27.7964 69.2532 25.203 69.2532 22.0038V10.9185C69.2532 7.71932 66.6647 5.12585 63.4717 5.12585Z" fill="#7994A5"/>
<path d="M21.0463 86.244C21.0463 86.244 53.0525 81.2639 54.1755 61.0521" stroke="#7994A5" stroke-width="4" stroke-linecap="round" stroke-linejoin="round"/>
<path d="M207.718 86.244C207.718 86.244 175.712 81.2639 174.589 61.0521" stroke="#7994A5" stroke-width="4" stroke-linecap="round" stroke-linejoin="round"/>
<path d="M118.833 70.408V84.5354L134.867 153.026" stroke="#7994A5" stroke-width="3" stroke-linecap="round" stroke-linejoin="round"/>
<path d="M206.844 106.456L207.718 198.784" stroke="#7994A5" stroke-width="3" stroke-linecap="round" stroke-linejoin="round"/>
<path d="M116.275 19.9617C119.158 19.9617 121.495 17.6201 121.495 14.7317C121.495 11.8432 119.158 9.50159 116.275 9.50159C113.392 9.50159 111.055 11.8432 111.055 14.7317C111.055 17.6201 113.392 19.9617 116.275 19.9617Z" fill="#EBED9F" stroke="#DFE283" stroke-width="1.34" stroke-miterlimit="10"/>
</svg>
