<svg width="232" height="249" viewBox="0 0 232 249" fill="none" xmlns="http://www.w3.org/2000/svg">
<path d="M216.282 65.2194V21.7612C216.282 9.75504 206.546 0 194.516 0H39.9068C27.8983 0 18.1414 9.7336 18.1414 21.7612V65.2408L15.5682 244.798H80.1996L117.212 87.0021L154.223 244.798H218.855L216.282 65.2408V65.2194Z" fill="#8AA9BF"/>
<path d="M35.8968 218.234H18.1414L21.7011 174.476" stroke="#7994A5" stroke-width="3" stroke-linecap="round" stroke-linejoin="round"/>
<path d="M82.8587 218.234H14.7319C6.59568 218.234 0 224.829 0 232.963V234.271C0 242.406 6.59568 249 14.7319 249H82.8587C90.9948 249 97.5905 242.406 97.5905 234.271V232.963C97.5905 224.829 90.9948 218.234 82.8587 218.234Z" fill="#D8E3EA"/>
<path d="M217.268 217.076H145.517C137.381 217.076 130.785 223.671 130.785 231.805V234.25C130.785 242.384 137.381 248.979 145.517 248.979H217.268C225.404 248.979 232 242.384 232 234.25V231.805C232 223.671 225.404 217.076 217.268 217.076Z" fill="#D8E3EA"/>
<path d="M216.282 16.8301H18.1414V36.9405H216.282V16.8301Z" fill="#7F7560"/>
<path d="M177.34 7.69678H164.431C162.05 7.69678 160.121 9.62615 160.121 12.0061V41.7858C160.121 44.1658 162.05 46.0952 164.431 46.0952H177.34C179.72 46.0952 181.65 44.1658 181.65 41.7858V12.0061C181.65 9.62615 179.72 7.69678 177.34 7.69678Z" fill="#7994A5"/>
<path d="M68.5128 6.08887H57.9196C54.6272 6.08887 51.9582 8.75735 51.9582 12.0491V38.527C51.9582 41.8188 54.6272 44.4873 57.9196 44.4873H68.5128C71.8052 44.4873 74.4742 41.8188 74.4742 38.527V12.0491C74.4742 8.75735 71.8052 6.08887 68.5128 6.08887Z" fill="#7994A5"/>
<path d="M21.7011 88.7386C21.7011 88.7386 54.703 83.6146 55.861 62.8181" stroke="#7994A5" stroke-width="4" stroke-linecap="round" stroke-linejoin="round"/>
<path d="M214.18 88.7386C214.18 88.7386 181.178 83.6146 180.02 62.8181" stroke="#7994A5" stroke-width="4" stroke-linecap="round" stroke-linejoin="round"/>
<path d="M122.53 72.4446V86.9807L139.063 157.453" stroke="#7994A5" stroke-width="3" stroke-linecap="round" stroke-linejoin="round"/>
<path d="M213.28 109.535L214.18 204.534" stroke="#7994A5" stroke-width="3" stroke-linecap="round" stroke-linejoin="round"/>
<path d="M133.552 21.3967H108.87C105.838 21.3967 103.38 23.854 103.38 26.8853C103.38 29.9165 105.838 32.3738 108.87 32.3738H133.552C136.584 32.3738 139.041 29.9165 139.041 26.8853C139.041 23.854 136.584 21.3967 133.552 21.3967Z" fill="#EBED9F" stroke="#DFE283" stroke-width="2.68" stroke-linecap="round" stroke-linejoin="round"/>
</svg>
