<svg width="318" height="220" viewBox="0 0 318 220" fill="none" xmlns="http://www.w3.org/2000/svg">
<path d="M311.315 69.8204C311.315 69.8204 267.8 31.3578 262.681 25.7996C257.543 20.2415 245.987 12.108 239.996 7.42063C234.005 2.71471 208.63 0.0282588 208.63 0.0282588C204.16 -0.342286 200.246 2.97409 199.875 7.45768C198.948 18.5555 193.328 39.2875 165.171 45.7164H152.41C124.253 39.2689 118.652 18.5555 117.706 7.45768C117.335 2.99262 113.421 -0.342286 108.951 0.0282588C108.951 0.0282588 83.5763 2.71471 77.5852 7.42063C71.594 12.1265 60.0383 20.2415 54.9004 25.7996C49.7624 31.3578 6.26622 69.8204 6.26622 69.8204C-3.49029 76.7866 6.26622 85.1238 6.26622 85.1238C6.26622 85.1238 14.6316 92.7756 27.1704 109.469C39.7091 126.162 48.4084 116.083 48.4084 116.083C48.4084 116.083 57.1076 108.783 68.9601 95.5547C69.0714 95.425 69.2012 95.2953 69.3125 95.1656C74.3021 89.6445 83.5021 93.2573 83.4279 100.705C83.2795 119.288 84.2812 152.1 83.5763 180.613C82.5005 223.745 90.5506 219.409 90.5506 219.409H227.067C227.067 219.409 235.099 223.745 234.042 180.613C233.337 152.1 234.357 119.288 234.19 100.705C234.134 93.2573 243.316 89.6445 248.305 95.1656C248.417 95.2953 248.547 95.425 248.658 95.5547C260.492 108.765 269.21 116.083 269.21 116.083C269.21 116.083 277.909 126.18 290.448 109.469C302.986 92.7756 311.352 85.1238 311.352 85.1238C311.352 85.1238 321.108 76.7681 311.352 69.8204H311.315Z" fill="#EA9D63"/>
<path d="M91.849 219.409C91.849 219.409 83.8175 223.745 84.8747 180.613C85.5796 152.1 84.5594 119.288 84.7263 100.705C84.782 93.2573 75.6005 89.6445 70.6109 95.1656C70.4996 95.2953 70.3698 95.425 70.2585 95.5547C58.4246 108.765 49.7068 116.083 49.7068 116.083C49.7068 116.083 41.0075 126.18 28.4688 109.469C15.93 92.7756 7.56462 85.1238 7.56462 85.1238C7.56462 85.1238 -2.19189 76.7681 7.56462 69.8204C7.56462 69.8204 51.0794 31.3578 56.1988 25.7996C61.3367 20.2415 72.8924 12.108 78.8836 7.42063C84.8747 2.71471 110.249 0.0282588 110.249 0.0282588C114.719 -0.342286 118.633 2.97409 119.004 7.45768C119.913 18.2776 125.273 38.2499 151.631 45.2162C151.631 45.2162 128.742 184.93 198.577 219.428H91.8119L91.849 219.409Z" fill="#EA9163"/>
<path d="M116.463 3.77085C116.463 3.77085 116.815 17.7589 125.032 28.5973C135.086 41.8628 161.888 57.4442 185.315 35.2486C192.437 28.4862 197.408 19.7784 200.228 10.3851C201.1 7.4763 201.879 4.53047 202.175 2.43689" stroke="#FCCA81" stroke-width="4" stroke-linecap="round" stroke-linejoin="round"/>
<path d="M2.00006 78.0835C2.00006 78.0835 33.9962 117.658 37.5204 118.38" stroke="#FCCA81" stroke-width="4" stroke-linecap="round" stroke-linejoin="round"/>
<path d="M315.655 78.9913C315.655 78.9913 285.94 117.083 280.747 118.084" stroke="#FCCA81" stroke-width="4" stroke-linecap="round" stroke-linejoin="round"/>
<path d="M86.5811 216.056H230.963" stroke="#FCCA81" stroke-width="4.11" stroke-linecap="round" stroke-linejoin="round"/>
<path d="M224.712 95.3879C224.712 95.3879 227.772 179.465 223.024 193.712C218.275 207.959 214.881 205.921 214.881 205.921" stroke="#FFCCB8" stroke-width="3" stroke-linecap="round" stroke-linejoin="round"/>
<path d="M217.571 8.86572C217.571 8.86572 235.859 11.2928 252.015 28.0414" stroke="#FFCCB8" stroke-width="2" stroke-linecap="round" stroke-linejoin="round"/>
<path d="M158.772 156.268C158.698 156.157 158.624 156.046 158.549 155.935C158.475 156.046 158.401 156.157 158.327 156.268H158.753H158.772Z" fill="#FF8A8A"/>
<path d="M159.625 155.787C159.551 155.675 159.477 155.564 159.403 155.453C159.31 155.305 159.199 155.194 159.05 155.101C158.902 155.009 158.735 154.971 158.549 154.971C158.364 154.971 158.215 155.009 158.049 155.101C157.9 155.194 157.789 155.305 157.696 155.453C157.622 155.564 157.548 155.675 157.474 155.787C157.381 155.935 157.344 156.102 157.344 156.287C157.344 156.472 157.381 156.62 157.474 156.787C157.64 157.084 157.974 157.269 158.308 157.269H158.735C158.865 157.269 158.994 157.25 159.106 157.176C159.236 157.139 159.328 157.065 159.421 156.972C159.514 156.88 159.588 156.787 159.625 156.657C159.681 156.546 159.718 156.417 159.718 156.287L159.681 156.028C159.625 155.861 159.551 155.713 159.421 155.601L159.217 155.453C159.069 155.361 158.902 155.323 158.716 155.323H158.29L159.124 156.787C159.199 156.676 159.273 156.565 159.347 156.454H157.659C157.733 156.565 157.807 156.676 157.882 156.787C157.937 156.898 158.03 156.991 158.141 157.065C158.234 157.158 158.345 157.213 158.475 157.232C158.605 157.269 158.735 157.287 158.865 157.232C158.995 157.232 159.124 157.195 159.236 157.121L159.44 156.972C159.57 156.843 159.644 156.713 159.699 156.546L159.736 156.287C159.736 156.102 159.699 155.953 159.607 155.787H159.625Z" fill="#EA706D"/>
<path d="M205.162 94.0539C203.863 88.5328 199.43 84.0492 194.2 81.826C188.969 79.6027 183.033 79.473 177.45 80.5476C172.924 81.4184 168.454 83.1414 165.041 86.2354C161.628 89.3295 159.347 93.8687 159.013 98.5375L158.772 99.6121L158.549 100.112L158.327 99.6492L158.086 98.5375C157.678 93.6093 155.47 89.3295 152.057 86.2354C148.644 83.1414 144.174 81.4184 139.648 80.5476C134.065 79.473 128.13 79.6027 122.899 81.826C117.668 84.0492 113.254 88.5328 111.937 94.0539C110.472 100.261 113.031 106.819 116.982 111.822C120.933 116.824 126.164 120.622 131.042 124.717C141.726 133.647 151.037 144.226 158.549 155.953C166.062 144.226 175.373 133.665 186.057 124.717C190.954 120.622 196.184 116.824 200.117 111.822C204.067 106.819 206.627 100.261 205.162 94.0539Z" fill="#FF8A8A"/>
<path d="M206.108 93.7946C203.084 82.178 190.508 77.787 179.602 79.2321C173.889 79.9918 168.009 81.9371 163.817 86.0687C161.944 87.9029 160.46 90.1447 159.458 92.5718C158.846 94.0725 158.419 95.5917 158.178 97.2036C158.067 98.0188 158.03 98.8895 157.696 99.6492H159.384C158.698 98.1855 158.828 96.2957 158.401 94.7395C157.826 92.6459 156.88 90.6449 155.637 88.8663C153.04 85.1794 149.294 82.6412 145.102 81.0663C136.347 77.8056 125.31 77.8611 117.706 83.7898C110.101 89.7186 108.895 98.8525 112.864 107.116C117.297 116.361 126.609 121.956 133.991 128.589C143.117 136.778 151.056 146.171 157.696 156.472C158.104 157.102 158.976 157.102 159.384 156.472C167.045 144.596 176.467 133.943 187.355 124.92C196.741 117.157 209.02 107.709 206.089 93.8131C205.829 92.5903 203.937 93.1091 204.197 94.3318C207.239 108.839 192.141 118.028 182.904 126.125C173.166 134.666 164.707 144.578 157.678 155.472H159.365C154.376 147.746 148.682 140.502 142.282 133.887C135.883 127.273 128.074 121.771 121.378 115.249C114.682 108.728 109.136 98.5005 114.886 89.6074C120.339 81.1775 131.376 79.6768 140.483 81.7333C145.695 82.9191 150.778 85.3647 153.912 89.8297C155.34 91.8677 156.324 94.1836 156.806 96.6292C157.084 98.0002 157.065 99.3342 157.659 100.613C157.956 101.243 159.069 101.261 159.347 100.613C159.903 99.2971 159.922 98.0002 160.2 96.6107C160.72 94.0354 161.832 91.5713 163.39 89.4592C166.785 84.883 172.201 82.5485 177.673 81.4925C188.116 79.473 201.174 82.7709 204.179 94.3133C204.494 95.5361 206.386 95.0174 206.071 93.7946H206.108Z" fill="#EA706D"/>
<path d="M165.041 97.4814C165.041 97.4814 174.019 84.4012 184.647 85.6425C195.275 86.8838 197.334 90.5152 197.334 90.5152" stroke="#FFCCB8" stroke-width="1.95" stroke-linecap="round" stroke-linejoin="round"/>
<path d="M199.375 95.3879L200.154 97.4815" stroke="#FFCCB8" stroke-width="2" stroke-linecap="round" stroke-linejoin="round"/>
<path d="M193.569 113.6C193.569 113.6 169.586 133.072 167.842 136.926C167.842 136.926 165.004 141.02 164.578 141.817" stroke="#FFCCB8" stroke-width="0.62" stroke-linecap="round" stroke-linejoin="round"/>
</svg>
