<svg width="141" height="137" viewBox="0 0 141 137" fill="none" xmlns="http://www.w3.org/2000/svg">
<path d="M8.09314 80.4724C8.8591 85.1093 9.64101 89.4913 10.4229 93.2359C10.5346 88.9814 9.35378 84.7269 8.09314 80.4724Z" fill="#F9A5EF"/>
<path d="M57.0028 31.5856L56.0932 25.7855C55.8219 27.8729 56.3964 29.7054 57.0028 31.5856Z" fill="#F9A5EF"/>
<path d="M139.551 104.167C139.2 103.306 138.992 102.366 139.247 101.458C139.295 101.267 139.359 101.091 139.423 100.916C139.407 100.852 139.375 100.805 139.375 100.725C139.184 97.8887 137.045 95.626 136.152 93.0127C135.673 91.6264 135.402 90.0967 134.923 88.6626C134.572 88.7104 134.205 88.567 134.109 88.1049C133.678 86.0016 131.668 84.4241 130.056 83.1972C128.333 81.9065 126.481 80.7433 124.583 79.7394C121.997 78.369 119.141 77.7954 116.221 77.6679C113.396 77.5404 110.476 78.3053 107.684 77.7157C107.54 77.6839 107.428 77.6201 107.333 77.5404C106.455 77.5404 105.593 77.5404 104.716 77.5086C104.508 77.5086 104.348 77.413 104.237 77.3014C102.561 77.397 101.269 77.4926 100.742 77.5404C100.567 77.5404 100.407 77.5564 100.231 77.5404L85.9495 77.2218C85.9495 77.2218 79.0559 76.9349 76.5187 75.8195C75.8485 75.6761 75.2261 75.4052 74.6198 75.0865C74.3166 74.9272 74.0453 74.7519 73.7581 74.5766C73.3432 74.4173 72.9442 74.258 72.5613 74.0827C70.3751 73.2541 67.79 72.1546 65.7793 69.9557C63.6251 67.5815 62.2208 64.6336 61.7261 61.4786L57.0347 31.5697C56.4283 29.6895 55.8538 27.857 56.1251 25.7696L53.5559 9.37313C53.3166 8.60828 53.1091 7.84343 52.8059 7.34946C51.9921 6.01097 51.29 4.81589 50.5081 3.85983C50.4921 3.8439 50.4602 3.82796 50.4442 3.81203C50.0772 3.44554 49.7102 3.09498 49.3113 2.77629C48.9761 2.53728 48.5932 2.34606 48.2421 2.12298C48.2102 2.10705 48.2102 2.09111 48.1783 2.05925C48.1304 2.05925 48.0985 2.02738 48.0666 2.01144C38.8113 -1.12763 17.524 -2.75294 1.53466 14.1216C0.896361 14.7908 0.497425 15.6194 0.289978 16.5117C0.305935 16.7667 0.321893 17.0376 0.321893 17.2925C0.353808 17.9299 0.417638 18.5832 0.481467 19.2206C0.625084 20.6069 0.752744 21.9613 0.752744 23.3476C0.752744 23.3476 0.752744 23.3635 0.752744 23.3795C0.832531 24.0487 1.02402 24.7179 1.10381 25.3713C1.21551 26.2317 1.31125 27.0762 1.48679 27.9367C1.64636 28.7334 1.85381 29.6098 1.78998 30.4384C1.77402 30.6455 1.72615 30.8368 1.66232 31.0439C1.75806 31.1395 1.83785 31.2351 1.88572 31.3626C2.0453 31.8406 2.14104 32.3346 2.22083 32.8445C2.22083 32.9082 2.22083 32.956 2.22083 33.0038C2.22083 33.0516 2.25274 33.0994 2.25274 33.1632C2.25274 34.2626 2.17296 35.3462 2.12508 36.4457C2.10913 36.8121 2.09317 37.1786 2.07721 37.5611C2.14104 38.0232 2.20487 38.4693 2.2687 38.9633C2.2687 38.9633 4.99743 61.7495 8.09317 80.4883C9.35381 84.7428 10.5347 88.9973 10.423 93.2517C11.3804 97.8887 12.3219 101.522 13.1676 103.354C17.4602 112.596 19.774 125.471 29.6996 129.773C39.6251 134.06 46.1836 136.052 54.4655 136.052C59.923 136.052 82.5187 134.904 97.3591 134.123C105.083 133.709 110.7 133.406 110.7 133.406C110.7 133.406 119.444 132.769 126.896 130.873C127.024 130.682 127.215 130.538 127.535 130.57C127.71 130.57 127.87 130.57 128.029 130.57C130.295 129.949 132.37 129.184 133.981 128.291C136.598 126.061 138.418 122.587 139.247 119.496C139.247 119.416 139.231 119.352 139.247 119.273C139.726 116.643 140.444 114.03 140.668 111.353C140.875 108.804 140.492 106.557 139.535 104.199L139.551 104.167Z" fill="#EA7063"/>
<path d="M104.205 77.3174L105.721 77.4289L106.104 77.6679L104.157 77.4927L104.205 77.3174Z" fill="#AB623F"/>
<path d="M103.981 77.3492C103.981 77.3492 108.226 77.4767 108.864 77.7795C109.503 78.0822 107.859 78.624 107.859 78.624L103.981 77.3492Z" fill="#AB623F"/>
<path d="M1.86976 36.6687C1.86976 36.6687 30.8166 18.9497 55.0719 19.1887C55.0719 19.1887 55.3112 6.2022 48.673 2.33014C42.0347 -1.54192 26.4123 0.593292 26.4123 0.593292C26.4123 0.593292 11.0293 3.81204 2.93891 11.0144C0.992102 12.7512 -0.061089 15.2689 0.0027408 17.8821L1.86976 36.6847V36.6687Z" fill="#F9D953"/>
<path d="M122.333 131.845C122.221 131.733 96.5134 105.601 105.29 77.2695L118.327 77.0624C118.327 77.0624 124.79 78.6399 127.87 80.9663C129.45 82.1614 131.253 83.8504 132.625 85.2049C134.093 86.6549 135.258 88.3758 136.072 90.272C137.269 93.0924 138.992 97.299 139.439 99.2271C139.822 100.852 140.285 103.163 140.636 104.932C140.987 106.7 141.098 108.66 140.923 110.556C140.508 115.146 139.391 123.718 136.838 125.774C136.838 125.774 134.333 128.467 131.492 129.407C128.652 130.347 122.38 131.813 122.317 131.829L122.333 131.845Z" fill="#F9D953"/>
<path d="M62.4442 135.781C62.4442 135.781 63.7368 115.401 44.7634 105.744C25.79 96.088 13.1836 103.338 13.1836 103.338L16.5027 111.608C16.5027 111.608 19.1038 118.269 20.3325 120.356C21.5613 122.444 23.5719 126.236 26.6357 127.989L29.6996 129.741C29.6996 129.741 38.7793 133.55 42.29 134.378C45.8006 135.207 51.0825 135.892 51.0825 135.892L62.4283 135.781H62.4442Z" fill="#F9D953"/>
<path d="M3.83252 15.1095C3.83252 15.1095 7.11975 23.8734 7.78997 29.1796" stroke="#E2BF29" stroke-width="2" stroke-linecap="round" stroke-linejoin="round"/>
<path d="M15.5294 8.65613C15.5294 8.65613 17.6996 17.7547 17.6996 23.1086" stroke="#E2BF29" stroke-width="2" stroke-linecap="round" stroke-linejoin="round"/>
<path d="M30.657 4.19446C30.657 4.19446 31.6463 13.1177 31.1676 18.2964" stroke="#E2BF29" stroke-width="1.81" stroke-linecap="round" stroke-linejoin="round"/>
<path d="M41.4761 2.50537C41.4761 2.50537 43.2474 11.8111 43.7102 17.4678" stroke="#E2BF29" stroke-width="1.41" stroke-linecap="round" stroke-linejoin="round"/>
<path d="M15.1464 55.7103C17.6493 55.7103 19.6783 53.6842 19.6783 51.1849C19.6783 48.6856 17.6493 46.6595 15.1464 46.6595C12.6434 46.6595 10.6144 48.6856 10.6144 51.1849C10.6144 53.6842 12.6434 55.7103 15.1464 55.7103Z" fill="#FFEA92"/>
<path d="M51.2102 70.0991C53.8717 70.0991 56.0294 67.9446 56.0294 65.2869C56.0294 62.6292 53.8717 60.4747 51.2102 60.4747C48.5487 60.4747 46.3911 62.6292 46.3911 65.2869C46.3911 67.9446 48.5487 70.0991 51.2102 70.0991Z" fill="#FFEA92"/>
<path d="M59.3006 111.289C62.2266 111.289 64.5985 108.921 64.5985 105.999C64.5985 103.077 62.2266 100.709 59.3006 100.709C56.3747 100.709 54.0027 103.077 54.0027 105.999C54.0027 108.921 56.3747 111.289 59.3006 111.289Z" fill="#FFEA92"/>
<path d="M92.4123 94.2237C96.3518 94.2237 99.5453 91.0348 99.5453 87.1011C99.5453 83.1673 96.3518 79.9784 92.4123 79.9784C88.4729 79.9784 85.2794 83.1673 85.2794 87.1011C85.2794 91.0348 88.4729 94.2237 92.4123 94.2237Z" fill="#FFEA92"/>
<path d="M96.1942 126.156C91.9815 126.156 88.5666 129.566 88.5666 133.773C88.5666 133.884 88.5825 133.98 88.5985 134.076V134.538L98.8432 133.996L99.9443 133.932C99.9443 133.932 99.9762 133.932 99.9921 133.932H100.024C100.024 133.932 100.04 133.932 100.056 133.932C100.072 133.932 100.088 133.932 100.104 133.932C100.104 133.932 100.12 133.932 100.136 133.932C100.136 133.932 100.168 133.932 100.184 133.932C100.184 133.932 100.2 133.932 100.216 133.932C100.216 133.932 100.231 133.932 100.247 133.932C100.263 133.932 100.279 133.932 100.295 133.932L102.274 133.821L103.742 133.741C103.726 129.55 100.311 126.156 96.1145 126.156H96.1942Z" fill="#FFEA92"/>
<path d="M11.8113 75.1184C10.2315 74.991 8.73146 75.3734 7.47083 76.1223L9.68891 89.6506C9.9921 89.7143 10.2953 89.794 10.6144 89.8259C14.6836 90.1605 18.2421 87.133 18.5772 83.0697C18.9123 79.0064 15.8804 75.453 11.8113 75.1184Z" fill="#FFEA92"/>
<path d="M57.5931 34.9319L55.8857 25.2916C52.9814 25.5784 50.6995 27.9845 50.6995 30.9483C50.6995 34.1033 53.2687 36.6688 56.4282 36.6688C56.891 36.6688 57.3219 36.605 57.7527 36.4935C57.7368 35.9517 57.6729 35.4259 57.5772 34.916L57.5931 34.9319Z" fill="#FFEA92"/>
</svg>
