<svg width="121" height="118" viewBox="0 0 121 118" fill="none" xmlns="http://www.w3.org/2000/svg">
<path d="M6.94525 69.23C7.60256 73.2191 8.27357 76.9889 8.94457 80.2103C9.04043 76.5502 8.02708 72.8901 6.94525 69.23Z" fill="#F9A5EF"/>
<path d="M48.9173 27.173L48.1367 22.1832C47.9039 23.979 48.3969 25.5555 48.9173 27.173Z" fill="#F9A5EF"/>
<path d="M119.756 89.6141C119.455 88.8738 119.277 88.065 119.496 87.2837C119.537 87.1192 119.592 86.9684 119.647 86.8176C119.633 86.7628 119.606 86.7216 119.606 86.6531C119.441 84.213 117.606 82.2665 116.839 80.0183C116.429 78.8257 116.196 77.5097 115.785 76.2759C115.484 76.3171 115.169 76.1937 115.087 75.7962C114.717 73.9867 112.991 72.6295 111.608 71.574C110.129 70.4636 108.541 69.4629 106.911 68.5993C104.693 67.4204 102.242 66.9269 99.7357 66.8173C97.3118 66.7076 94.8058 67.3656 92.4094 66.8584C92.2861 66.831 92.1903 66.7761 92.1081 66.7076C91.3549 66.7076 90.6155 66.7076 89.8623 66.6802C89.6843 66.6802 89.5473 66.5979 89.4515 66.502C88.0136 66.5842 86.9044 66.6665 86.4525 66.7076C86.3019 66.7076 86.1649 66.7213 86.0143 66.7076L73.7582 66.4334C73.7582 66.4334 67.8424 66.1867 65.665 65.2271C65.0899 65.1037 64.5558 64.8707 64.0354 64.5965C63.7753 64.4594 63.5425 64.3086 63.296 64.1578C62.9399 64.0208 62.5976 63.8837 62.2689 63.7329C60.3929 63.0201 58.1744 62.0742 56.449 60.1825C54.6003 58.1399 53.3952 55.6039 52.9707 52.8897L48.9447 27.1593C48.4243 25.5417 47.9313 23.9652 48.1641 22.1694L45.9594 8.06365C45.754 7.40565 45.576 6.74766 45.3158 6.3227C44.6174 5.17121 44.0149 4.14309 43.3439 3.32059C43.3302 3.30688 43.3028 3.29317 43.2891 3.27947C42.9741 2.96418 42.6592 2.66259 42.3168 2.38843C42.0292 2.1828 41.7006 2.01831 41.3993 1.82639C41.3719 1.81268 41.3719 1.79897 41.3445 1.77156C41.3035 1.77156 41.2761 1.74414 41.2487 1.73043C33.3062 -0.970096 15.0384 -2.36834 1.31703 12.1487C0.769273 12.7245 0.426923 13.4373 0.248901 14.2049C0.262595 14.4243 0.276289 14.6573 0.276289 14.8767C0.303677 15.425 0.358453 15.987 0.413229 16.5354C0.536475 17.728 0.646027 18.8932 0.646027 20.0858C0.646027 20.0858 0.646027 20.0995 0.646027 20.1132C0.714497 20.689 0.878824 21.2647 0.947294 21.8267C1.04315 22.567 1.12532 23.2935 1.27595 24.0338C1.41289 24.7192 1.59091 25.4731 1.53614 26.186C1.52244 26.3642 1.48136 26.5287 1.42658 26.7069C1.50875 26.7891 1.57722 26.8714 1.6183 26.981C1.75524 27.3923 1.8374 27.8173 1.90587 28.2559C1.90587 28.3107 1.90587 28.3519 1.90587 28.393C1.90587 28.4341 1.93326 28.4752 1.93326 28.5301C1.93326 29.4759 1.86479 30.4081 1.82371 31.354C1.81002 31.6693 1.79632 31.9846 1.78263 32.3136C1.8374 32.7111 1.89218 33.0949 1.94695 33.5199C1.94695 33.5199 4.28863 53.1227 6.94526 69.2436C8.02708 72.9037 9.04044 76.5638 8.94458 80.2239C9.76622 84.213 10.5742 87.3385 11.2999 88.915C14.9836 96.8658 16.9692 107.942 25.4869 111.643C34.0046 115.331 39.6328 117.044 46.74 117.044C51.4233 117.044 70.814 116.057 83.5494 115.386C90.1773 115.029 94.9975 114.769 94.9975 114.769C94.9975 114.769 102.502 114.22 108.897 112.589C109.006 112.425 109.171 112.301 109.445 112.329C109.595 112.329 109.732 112.329 109.869 112.329C111.814 111.794 113.594 111.136 114.977 110.368C117.223 108.449 118.784 105.461 119.496 102.801C119.496 102.733 119.482 102.678 119.496 102.61C119.907 100.348 120.523 98.0995 120.715 95.7965C120.893 93.6032 120.564 91.6703 119.743 89.6415L119.756 89.6141Z" fill="#F9A5EF"/>
<path d="M89.4241 66.5157L90.725 66.6117L91.0537 66.8173L89.383 66.6665L89.4241 66.5157Z" fill="#AB623F"/>
<path d="M89.2324 66.5431C89.2324 66.5431 92.875 66.6528 93.4227 66.9132C93.9705 67.1737 92.56 67.6398 92.56 67.6398L89.2324 66.5431Z" fill="#AB623F"/>
<path d="M1.60455 31.546C1.60455 31.546 26.4454 16.3024 47.2603 16.508C47.2603 16.508 47.4657 5.33582 41.769 2.00471C36.0723 -1.3264 22.6659 0.510509 22.6659 0.510509C22.6659 0.510509 9.46489 3.27958 2.52204 9.47571C0.851379 10.9699 -0.0524239 13.1358 0.00235203 15.384L1.60455 31.5597V31.546Z" fill="#FF4848"/>
<path d="M104.98 113.425C104.885 113.329 82.8236 90.8479 90.3553 66.4746L101.543 66.2964C101.543 66.2964 107.089 67.6535 109.732 69.6549C111.088 70.683 112.635 72.1361 113.813 73.3013C115.073 74.5488 116.073 76.0293 116.771 77.6605C117.798 80.0869 119.277 83.7059 119.66 85.3646C119.989 86.7628 120.386 88.7505 120.687 90.2721C120.989 91.7937 121.085 93.4799 120.934 95.1111C120.578 99.0591 119.619 106.434 117.428 108.203C117.428 108.203 115.278 110.519 112.841 111.328C110.403 112.137 105.022 113.398 104.967 113.412L104.98 113.425Z" fill="#FF4848"/>
<path d="M53.5869 116.811C53.5869 116.811 54.6961 99.2785 38.414 90.9713C22.1318 82.6641 11.3136 88.9013 11.3136 88.9013L14.1619 96.0159C14.1619 96.0159 16.3941 101.746 17.4485 103.542C18.5029 105.338 20.2284 108.6 22.8576 110.108L25.4869 111.616C25.4869 111.616 33.2787 114.892 36.2914 115.605C39.3041 116.318 43.8368 116.907 43.8368 116.907L53.5732 116.811H53.5869Z" fill="#FF4848"/>
<path d="M3.28894 12.9987C3.28894 12.9987 6.1099 20.5382 6.68505 25.1031" stroke="#FF0000" stroke-width="2" stroke-linecap="round" stroke-linejoin="round"/>
<path d="M13.3267 7.44678C13.3267 7.44678 15.189 15.2742 15.189 19.8802" stroke="#FF0000" stroke-width="2" stroke-linecap="round" stroke-linejoin="round"/>
<path d="M26.3085 3.60852C26.3085 3.60852 27.1576 11.2851 26.7467 15.7403" stroke="#FF0000" stroke-width="1.81" stroke-linecap="round" stroke-linejoin="round"/>
<path d="M35.593 2.1554C35.593 2.1554 37.113 10.161 37.5102 15.0275" stroke="#FF0000" stroke-width="1.41" stroke-linecap="round" stroke-linejoin="round"/>
<path d="M12.998 47.9273C15.1459 47.9273 16.8871 46.1843 16.8871 44.0341C16.8871 41.884 15.1459 40.141 12.998 40.141C10.8501 40.141 9.10889 41.884 9.10889 44.0341C9.10889 46.1843 10.8501 47.9273 12.998 47.9273Z" fill="#FF0000"/>
<path d="M43.9464 60.3059C46.2304 60.3059 48.082 58.4524 48.082 56.166C48.082 53.8796 46.2304 52.0261 43.9464 52.0261C41.6624 52.0261 39.8108 53.8796 39.8108 56.166C39.8108 58.4524 41.6624 60.3059 43.9464 60.3059Z" fill="#FF0000"/>
<path d="M50.8892 95.7417C53.4001 95.7417 55.4356 93.7041 55.4356 91.1905C55.4356 88.677 53.4001 86.6394 50.8892 86.6394C48.3783 86.6394 46.3428 88.677 46.3428 91.1905C46.3428 93.7041 48.3783 95.7417 50.8892 95.7417Z" fill="#FF0000"/>
<path d="M79.3042 81.0602C82.6848 81.0602 85.4254 78.3168 85.4254 74.9326C85.4254 71.5485 82.6848 68.8051 79.3042 68.8051C75.9235 68.8051 73.183 71.5485 73.183 74.9326C73.183 78.3168 75.9235 81.0602 79.3042 81.0602Z" fill="#FF0000"/>
<path d="M82.5497 108.531C78.9345 108.531 76.004 111.465 76.004 115.084C76.004 115.18 76.0177 115.262 76.0314 115.345V115.742L84.8229 115.276L85.7678 115.221C85.7678 115.221 85.7952 115.221 85.8089 115.221H85.8362C85.8362 115.221 85.8499 115.221 85.8636 115.221C85.8773 115.221 85.891 115.221 85.9047 115.221C85.9047 115.221 85.9184 115.221 85.9321 115.221C85.9321 115.221 85.9595 115.221 85.9732 115.221C85.9732 115.221 85.9869 115.221 86.0006 115.221C86.0006 115.221 86.0143 115.221 86.028 115.221C86.0417 115.221 86.0553 115.221 86.069 115.221L87.7671 115.125L89.0269 115.057C89.0133 111.451 86.0827 108.531 82.4812 108.531H82.5497Z" fill="#FF0000"/>
<path d="M10.136 64.624C8.78025 64.5143 7.49302 64.8433 6.41119 65.4876L8.31466 77.1259C8.57484 77.1807 8.83503 77.2493 9.10891 77.2767C12.6009 77.5646 15.6546 74.96 15.9422 71.4644C16.2298 67.9688 13.6279 64.9118 10.136 64.624Z" fill="#FF0000"/>
<path d="M49.424 30.0518L47.9587 21.7583C45.4664 22.005 43.5082 24.075 43.5082 26.6247C43.5082 29.339 45.7129 31.546 48.4243 31.546C48.8214 31.546 49.1912 31.4912 49.5609 31.3952C49.5472 30.9291 49.4924 30.4768 49.4103 30.0381L49.424 30.0518Z" fill="#FF0000"/>
</svg>
