<svg width="323" height="223" viewBox="0 0 323 223" fill="none" xmlns="http://www.w3.org/2000/svg">
<path d="M316.334 70.9237C316.334 70.9237 272.113 31.8534 266.91 26.2074C261.689 20.5614 249.946 12.2994 243.857 7.53789C237.769 2.75761 211.983 0.0287054 211.983 0.0287054C207.44 -0.347695 203.463 3.02109 203.086 7.57553C202.144 18.8487 196.432 39.9083 167.819 46.4389H154.85C126.237 39.8895 120.544 18.8487 119.583 7.57553C119.206 3.03991 115.229 -0.347695 110.686 0.0287054C110.686 0.0287054 84.9 2.75761 78.8116 7.53789C72.7232 12.3182 60.98 20.5614 55.7587 26.2074C50.5374 31.8534 6.33542 70.9237 6.33542 70.9237C-3.5794 78.0001 6.33542 86.4691 6.33542 86.4691C6.33542 86.4691 14.8365 94.2417 27.5788 111.199C40.321 128.155 49.1614 117.917 49.1614 117.917C49.1614 117.917 58.0018 110.502 70.0466 97.0648C70.1597 96.933 70.2916 96.8013 70.4047 96.6695C75.4752 91.0612 84.8246 94.7311 84.7492 102.297C84.5984 121.173 85.6162 154.503 84.9 183.467C83.8067 227.281 91.9874 222.877 91.9874 222.877H230.719C230.719 222.877 238.881 227.281 237.807 183.467C237.09 154.503 238.127 121.173 237.958 102.297C237.901 94.7311 247.231 91.0612 252.302 96.6695C252.415 96.8013 252.547 96.933 252.66 97.0648C264.686 110.483 273.545 117.917 273.545 117.917C273.545 117.917 282.386 128.174 295.128 111.199C307.87 94.2417 316.371 86.4691 316.371 86.4691C316.371 86.4691 326.286 77.9812 316.371 70.9237H316.334Z" fill="#B793E2"/>
<path d="M93.3068 222.877C93.3068 222.877 85.145 227.281 86.2194 183.467C86.9357 154.503 85.899 121.173 86.0686 102.297C86.1252 94.7311 76.7947 91.0612 71.7242 96.6695C71.6111 96.8013 71.4791 96.933 71.366 97.0648C59.3401 110.483 50.4808 117.917 50.4808 117.917C50.4808 117.917 41.6405 128.174 28.8982 111.199C16.156 94.2417 7.65488 86.4691 7.65488 86.4691C7.65488 86.4691 -2.25994 77.9812 7.65488 70.9237C7.65488 70.9237 51.8757 31.8534 57.0782 26.2074C62.2995 20.5614 74.0427 12.2994 80.131 7.53789C86.2194 2.75761 112.005 0.0287054 112.005 0.0287054C116.548 -0.347695 120.525 3.02109 120.902 7.57553C121.826 18.5664 127.274 38.8544 154.059 45.9307C154.059 45.9307 130.798 187.853 201.767 222.895H93.2691L93.3068 222.877Z" fill="#B487D6"/>
<path d="M118.32 3.83038C118.32 3.83038 118.678 18.0395 127.028 29.0492C137.245 42.5244 164.482 58.352 188.289 35.8056C195.527 28.9363 200.579 20.0909 203.444 10.5491C204.33 7.59439 205.122 4.602 205.423 2.47534" stroke="#D5D88F" stroke-width="4" stroke-linecap="round" stroke-linejoin="round"/>
<path d="M2.00006 79.3175C2.00006 79.3175 34.5154 119.517 38.0968 120.251" stroke="#D5D88F" stroke-width="4" stroke-linecap="round" stroke-linejoin="round"/>
<path d="M320.744 80.2396C320.744 80.2396 290.548 118.934 285.27 119.95" stroke="#D5D88F" stroke-width="4" stroke-linecap="round" stroke-linejoin="round"/>
<path d="M87.9536 219.47H234.678" stroke="#D5D88F" stroke-width="4.11" stroke-linecap="round" stroke-linejoin="round"/>
<path d="M228.325 96.8954C228.325 96.8954 231.436 182.301 226.61 196.773C221.785 211.246 218.335 209.176 218.335 209.176" stroke="#F2CCF0" stroke-width="3" stroke-linecap="round" stroke-linejoin="round"/>
<path d="M221.068 9.00586C221.068 9.00586 239.654 11.4713 256.072 28.4846" stroke="#F2CCF0" stroke-width="2" stroke-linecap="round" stroke-linejoin="round"/>
</svg>
