<svg width="329" height="228" viewBox="0 0 329 228" fill="none" xmlns="http://www.w3.org/2000/svg">
<path d="M321.84 72.2956C321.84 72.2956 276.845 32.4695 271.551 26.7143C266.238 20.9591 254.289 12.5373 248.094 7.6837C241.899 2.81095 215.662 0.0292606 215.662 0.0292606C211.039 -0.35442 206.992 3.07952 206.609 7.72206C205.65 19.2133 199.838 40.6803 170.724 47.3371H157.528C128.413 40.6611 122.621 19.2133 121.643 7.72206C121.259 3.09871 117.212 -0.35442 112.59 0.0292606C112.59 0.0292606 86.3522 2.81095 80.1572 7.6837C73.9622 12.5564 62.0132 20.9591 56.7005 26.7143C51.3877 32.4695 6.41139 72.2956 6.41139 72.2956C-3.67711 79.5088 6.41139 88.1416 6.41139 88.1416C6.41139 88.1416 15.0614 96.0646 28.0269 113.349C40.9923 130.634 49.9876 120.198 49.9876 120.198C49.9876 120.198 58.9828 112.64 71.2386 98.9422C71.3537 98.8079 71.488 98.6736 71.6031 98.5394C76.7624 92.8225 86.2755 96.5634 86.1988 104.275C86.0454 123.517 87.0811 157.492 86.3522 187.016C85.2398 231.677 93.5638 227.188 93.5638 227.188H234.726C234.726 227.188 243.031 231.677 241.938 187.016C241.209 157.492 242.264 123.517 242.091 104.275C242.034 96.5634 251.527 92.8225 256.687 98.5394C256.802 98.6736 256.936 98.8079 257.051 98.9422C269.288 112.62 278.302 120.198 278.302 120.198C278.302 120.198 287.298 130.653 300.263 113.349C313.228 96.0646 321.879 88.1416 321.879 88.1416C321.879 88.1416 331.967 79.4896 321.879 72.2956H321.84Z" fill="#E9F2A2"/>
<path d="M93.5255 227.188C93.5255 227.188 85.2207 231.677 86.3139 187.016C87.0427 157.492 85.9879 123.517 86.1605 104.275C86.218 96.5634 76.7241 92.8225 71.5647 98.5394C71.4497 98.6736 71.3154 98.8079 71.2003 98.9422C58.9637 112.62 49.9493 120.198 49.9493 120.198C49.9493 120.198 40.954 130.653 27.9885 113.349C15.0231 96.0646 6.37306 88.1416 6.37306 88.1416C6.37306 88.1416 -3.71544 79.4896 6.37306 72.2956C6.37306 72.2956 51.3686 32.4695 56.6621 26.7143C61.9749 20.9591 73.9238 12.5373 80.1189 7.6837C86.3139 2.81095 112.552 0.0292606 112.552 0.0292606C117.174 -0.35442 121.221 3.07952 121.604 7.72206C122.544 18.9255 128.087 39.606 155.342 46.8192C155.342 46.8192 131.674 191.486 203.885 227.207H93.4871L93.5255 227.188Z" fill="#EDED9A"/>
<path d="M120.358 3.90444C120.358 3.90444 120.722 18.3884 129.219 29.6111C139.614 43.3468 167.329 59.4806 191.553 36.4981C198.918 29.496 204.058 20.4795 206.973 10.7532C207.875 7.74125 208.68 4.69099 208.987 2.52319" stroke="#F4B0D1" stroke-width="4" stroke-linecap="round" stroke-linejoin="round"/>
<path d="M2.00012 80.8517C2.00012 80.8517 35.085 121.829 38.7292 122.577" stroke="#F4B0D1" stroke-width="4" stroke-linecap="round" stroke-linejoin="round"/>
<path d="M326.328 81.7916C326.328 81.7916 295.602 121.234 290.232 122.27" stroke="#F4B0D1" stroke-width="4" stroke-linecap="round" stroke-linejoin="round"/>
<path d="M89.4594 223.715H238.754" stroke="#F4B0D1" stroke-width="4.11" stroke-linecap="round" stroke-linejoin="round"/>
<path d="M86.3139 164.628H241.899" stroke="#F4B0D1" stroke-width="4" stroke-miterlimit="10"/>
<path d="M17.1328 63.2599L61.9173 108.055" stroke="#F4B0D1" stroke-width="4" stroke-miterlimit="10"/>
<path d="M271.129 113.656L309.393 60.4398" stroke="#F4B0D1" stroke-width="4" stroke-miterlimit="10"/>
<path d="M45.7489 36.0761L74.6143 64.9481C81.1546 71.4898 89.5361 75.8254 98.6464 77.3602C125.114 81.8109 183.747 89.0049 236.376 77.0724C242.053 75.7871 247.078 72.449 250.607 67.8065L278.609 30.9923" stroke="#F4B0D1" stroke-width="4" stroke-miterlimit="10"/>
<path d="M86.3139 119.853H241.899" stroke="#F4B0D1" stroke-width="4" stroke-miterlimit="10"/>
<path d="M86.3139 205.164H241.899" stroke="#F4B0D1" stroke-width="4" stroke-miterlimit="10"/>
<path d="M229.49 97.2157C229.49 97.2157 232.655 184.273 227.745 199.025C222.835 213.778 219.325 211.668 219.325 211.668" stroke="white" stroke-width="3" stroke-linecap="round" stroke-linejoin="round"/>
<path d="M224.906 9.18005C224.906 9.18005 243.817 11.6932 260.523 29.0355" stroke="white" stroke-width="2" stroke-linecap="round" stroke-linejoin="round"/>
</svg>
