<svg width="150" height="141" viewBox="0 0 150 141" fill="none" xmlns="http://www.w3.org/2000/svg">
<path d="M134.083 92.7612C133.597 92.1402 133.219 91.4247 133.205 90.6281C133.205 90.4526 133.205 90.3041 133.205 90.1556C133.178 90.1151 133.138 90.0746 133.124 90.0206C132.3 87.7525 130.031 86.416 128.693 84.4854C127.991 83.4729 127.396 82.2848 126.68 81.2318C126.41 81.3533 126.072 81.3128 125.897 80.9753C125.059 79.3687 123.046 78.5317 121.452 77.9242C119.75 77.2762 117.966 76.7496 116.196 76.3716C113.765 75.8586 111.306 76.0476 108.915 76.6281C106.577 77.1817 104.389 78.4777 101.971 78.6667C101.835 78.6667 101.741 78.6532 101.646 78.5992C100.944 78.8152 100.228 79.0177 99.5118 79.1797C99.3362 79.2202 99.2011 79.1797 99.066 79.1257C97.7285 79.5982 96.6882 79.9763 96.2829 80.1248C96.1479 80.1788 96.0127 80.2193 95.8776 80.2598L84.1781 83.3244C84.1781 83.3244 78.504 84.6879 76.1803 84.3774C75.6129 84.4179 75.032 84.3369 74.4646 84.2289C74.1808 84.1749 73.9107 84.0939 73.6405 84.0129C73.2757 83.9859 72.9109 83.9454 72.5462 83.8914C70.5737 83.7294 68.2095 83.4324 66.075 82.1093C63.7648 80.6783 61.9274 78.5992 60.8061 76.1421L42.0004 35.6002C41.6357 35.0331 41.2844 34.4661 40.9196 34.1286C39.9469 33.2376 39.0823 32.4141 38.2312 31.8335C38.2042 31.8335 38.1906 31.8335 38.1636 31.8065C37.7853 31.5905 37.3936 31.388 36.9883 31.226C36.6505 31.1045 36.3128 31.037 35.975 30.9425C35.948 30.9425 35.9345 30.9155 35.9075 30.9155C35.867 30.9155 35.8399 30.902 35.7994 30.902C27.5584 30.47 9.86051 34.1016 0.768392 51.5712C0.403627 52.2598 0.268528 53.0428 0.309058 53.8123C0.390117 54.0148 0.457666 54.2308 0.525215 54.4333C0.700843 54.9464 0.903491 55.4594 1.10614 55.9589C1.53845 57.0524 1.97077 58.1325 2.295 59.253C2.295 59.253 2.295 59.2665 2.295 59.28C2.51116 59.8065 2.82189 60.3061 3.05155 60.8191C3.33526 61.4941 3.61897 62.1691 3.95671 62.8171C4.28095 63.4247 4.64572 64.0997 4.78081 64.7882C4.80783 64.9637 4.82134 65.1257 4.80783 65.3012C4.9024 65.3552 4.99697 65.4092 5.06452 65.5172C5.3077 65.8683 5.49684 66.2598 5.67246 66.6378C5.69948 66.6783 5.69948 66.7188 5.69948 66.7728C5.7265 66.8133 5.75352 66.8538 5.76703 66.8943C6.02372 67.7853 6.21286 68.6899 6.42901 69.5944C6.49656 69.8914 6.57762 70.2019 6.64517 70.5124C6.80729 70.8769 6.9559 71.2279 7.13153 71.606C7.13153 71.606 25.3698 114.983 31.0304 121.504C36.6911 128.038 41.5681 137.988 50.6467 139.176C59.7253 140.364 65.521 140.445 72.276 138.514C79.0309 136.584 117.439 123.272 117.439 123.272C117.439 123.272 124.41 120.721 130.031 117.44C130.085 117.251 130.22 117.089 130.476 117.035C130.611 117.008 130.747 116.954 130.882 116.927C132.57 115.888 134.097 114.794 135.191 113.687C136.799 111.27 137.461 108.003 137.434 105.29C137.407 105.236 137.38 105.182 137.38 105.101C137.15 102.846 137.123 100.551 136.691 98.3234C136.272 96.1903 135.434 94.4623 134.097 92.7612H134.083Z" fill="#AB623F"/>
<path d="M99.0525 79.1122L100.309 78.8557L100.674 78.9637L99.0525 79.2742V79.1122Z" fill="#AB623F"/>
<path d="M98.8633 79.1932C98.8633 79.1932 102.349 78.3157 102.93 78.4102C103.511 78.5047 102.308 79.3282 102.308 79.3282L98.8498 79.1932H98.8633Z" fill="#AB623F"/>
<path d="M6.26691 69.8239C6.26691 69.8239 25.6941 48.6552 45.486 43.2145C45.486 43.2145 42.6489 32.5761 36.3533 30.9695C30.0577 29.363 17.8313 34.7227 17.8313 34.7227C17.8313 34.7227 6.06426 40.9329 1.14668 48.6687C-0.0421841 50.5317 -0.312381 52.8403 0.363111 54.9464L6.26691 69.8239Z" fill="#F9C148"/>
<path d="M126.518 119.303C126.41 119.236 99.3902 103.94 99.9171 78.8152L110.482 75.6156C110.482 75.6156 116.115 75.3861 119.155 76.5741C120.722 77.1817 122.573 78.1402 124.019 78.9232C125.559 79.7603 126.896 80.8943 128.004 82.2578C129.639 84.2829 132.016 87.307 132.841 88.7651C133.53 90.0071 134.448 91.7757 135.151 93.1392C135.853 94.5028 136.394 96.0688 136.691 97.6484C137.42 101.483 138.515 108.719 136.921 111C136.921 111 135.516 113.768 133.421 115.213C131.327 116.657 126.558 119.303 126.518 119.317V119.303Z" fill="#FFC346"/>
<path d="M78.6932 136.462C78.6932 136.462 74.9915 119.56 57.2936 116.104C39.5957 112.647 31.0305 121.49 31.0305 121.49L35.6643 127.457C35.6643 127.457 39.339 132.277 40.8251 133.695C42.3112 135.112 44.8375 137.731 47.7421 138.447L50.6467 139.162C50.6467 139.162 58.9283 140.161 61.968 140.013C65.0077 139.864 69.4795 139.203 69.4795 139.203L78.6932 136.476V136.462Z" fill="#FFC346"/>
<path d="M2.83542 51.8008C2.83542 51.8008 7.55035 58.173 9.33365 62.3312" stroke="#AB623F" stroke-width="2" stroke-linecap="round" stroke-linejoin="round"/>
<path d="M10.8467 43.822C10.8467 43.822 14.7376 50.7343 15.9805 55.0814" stroke="#AB623F" stroke-width="2" stroke-linecap="round" stroke-linejoin="round"/>
<path d="M22.1275 36.6667C22.1275 36.6667 25.0186 43.7005 25.8292 48.0342" stroke="#AB623F" stroke-width="1.81" stroke-linecap="round" stroke-linejoin="round"/>
<path d="M30.5441 32.7786C30.5441 32.7786 34.1647 39.9473 35.8535 44.443" stroke="#AB623F" stroke-width="1.41" stroke-linecap="round" stroke-linejoin="round"/>
<path opacity="0.1" d="M140.406 108.786L137.42 107.477V106.64L40.1226 37.9763L33.3271 30.9425L24.951 32.8056C24.951 32.8056 30.5441 76.2231 33.3271 86.767C36.1237 97.3109 41.0818 113.444 47.2963 117.467C53.4973 121.504 64.6699 124.285 70.263 124.285C75.8561 124.285 100.674 124.906 105.956 124.285H114.427L122.087 121.355L127.828 118.561L130.031 117.413L134.192 114.578C134.192 114.578 136.069 111.986 136.38 111.689C136.515 111.554 136.758 111.068 136.961 110.568L140.42 108.759L140.406 108.786Z" fill="black"/>
<path d="M147.796 88.2656C147.499 87.5366 147.323 86.74 147.539 85.9705C147.58 85.8085 147.634 85.66 147.688 85.5115C147.674 85.4575 147.647 85.417 147.647 85.3495C147.485 82.9464 145.675 81.0293 144.918 78.8153C144.513 77.6407 144.283 76.3447 143.878 75.1296C143.581 75.1701 143.27 75.0486 143.189 74.6571C142.824 72.875 141.122 71.5385 139.758 70.499C138.299 69.4054 136.731 68.4199 135.124 67.5694C132.935 66.4083 130.517 65.9223 128.045 65.8143C125.653 65.7063 123.181 66.3543 120.817 65.8548C120.695 65.8278 120.601 65.7738 120.52 65.7063C119.777 65.7063 119.047 65.7063 118.304 65.6793C118.128 65.6793 117.993 65.5983 117.899 65.5038C116.48 65.5848 115.386 65.6658 114.94 65.7063C114.791 65.7063 114.656 65.7198 114.508 65.7063L102.416 65.4363C102.416 65.4363 96.5801 65.1933 94.4321 64.2482C93.8647 64.1267 93.3378 63.8972 92.8244 63.6272C92.5677 63.4922 92.3381 63.3437 92.0949 63.1952C91.7436 63.0602 91.4059 62.9252 91.0816 62.7767C89.2308 62.0747 87.0422 61.1431 85.34 59.2801C83.5161 57.2685 82.3273 54.7709 81.9085 52.0978L74.9914 7.95122C74.7888 7.3032 74.6131 6.65518 74.3565 6.23666C73.6675 5.10262 73.073 4.09008 72.411 3.28005C72.3975 3.26655 72.3705 3.25305 72.357 3.23955C72.0463 2.92904 71.7356 2.63203 71.3978 2.36202C71.1141 2.15951 70.7899 1.99751 70.4926 1.8085C70.4656 1.795 70.4656 1.7815 70.4386 1.7545C70.3981 1.7545 70.3711 1.7275 70.344 1.714C62.5489 -0.959097 44.5132 -2.33615 30.9764 11.9609C30.436 12.5279 30.0982 13.2299 29.9226 13.9859C29.9361 14.2019 29.9496 14.4315 29.9496 14.6475C29.9766 15.1875 30.0307 15.741 30.0847 16.281C30.2063 17.4556 30.3144 18.6031 30.3144 19.7776C30.3144 19.7776 30.3144 19.7911 30.3144 19.8046C30.3819 20.3717 30.5441 20.9387 30.6116 21.4922C30.7062 22.2212 30.7872 22.9368 30.9358 23.6658C31.0709 24.3408 31.2466 25.0833 31.1925 25.7854C31.179 25.9609 31.1385 26.1229 31.0845 26.2984C31.1655 26.3794 31.2331 26.4604 31.2736 26.5684C31.4087 26.9734 31.4897 27.3919 31.5573 27.8239C31.5573 27.8779 31.5573 27.9184 31.5573 27.9589C31.5573 27.9994 31.5843 28.0399 31.5843 28.0939C31.5843 29.0255 31.5168 29.9435 31.4762 30.875C31.4627 31.1856 31.4492 31.4961 31.4357 31.8201C31.4897 32.2116 31.5438 32.5896 31.5978 33.0081C31.5978 33.0081 37.1909 79.7198 40.8386 87.5501C44.4727 95.3803 46.4316 106.289 54.8348 109.934C63.2379 113.565 68.7904 115.253 75.802 115.253C82.8136 115.253 123.411 113.012 123.411 113.012C123.411 113.012 130.814 112.472 137.123 110.865C137.231 110.703 137.393 110.582 137.664 110.609C137.812 110.609 137.947 110.609 138.082 110.609C140.001 110.082 141.757 109.434 143.122 108.678C145.337 106.788 146.877 103.845 147.58 101.226C147.58 101.159 147.566 101.105 147.58 101.037C147.985 98.8095 148.593 96.5954 148.782 94.3273C148.958 92.1672 148.634 90.2637 147.823 88.2656H147.796Z" fill="#AB623F"/>
<path d="M117.872 65.5173L119.155 65.6118L119.479 65.8143L117.818 65.6658L117.872 65.5173Z" fill="#AB623F"/>
<path d="M117.669 65.5443C117.669 65.5443 121.263 65.6523 121.803 65.9088C122.343 66.1653 120.952 66.6243 120.952 66.6243L117.669 65.5443Z" fill="#AB623F"/>
<path d="M31.2196 31.0775C31.2196 31.0775 55.7264 16.065 76.2614 16.2675C76.2614 16.2675 76.464 5.26459 70.8439 1.98397C65.2238 -1.29664 51.9977 0.49892 51.9977 0.49892C51.9977 0.49892 38.9742 3.22602 32.1247 9.32824C30.4765 10.7998 29.5849 12.9329 29.6389 15.1469L31.2196 31.0775Z" fill="#F9C148"/>
<path d="M133.205 111.716C133.111 111.621 111.346 89.4806 118.777 65.4768L129.814 65.3013C129.814 65.3013 135.286 66.6378 137.893 68.6089C139.231 69.6214 140.757 71.0525 141.919 72.2C143.162 73.4286 144.148 74.8866 144.837 76.4932C145.851 78.8828 147.31 82.4469 147.688 84.0804C148.012 85.4575 148.404 87.4151 148.701 88.9136C148.998 90.4122 149.093 92.0727 148.944 93.6793C148.593 97.5674 147.647 104.831 145.486 106.572C145.486 106.572 143.365 108.854 140.96 109.65C138.555 110.447 133.246 111.689 133.192 111.702L133.205 111.716Z" fill="#FFC346"/>
<path d="M82.5029 115.051C82.5029 115.051 83.5972 97.7834 67.534 89.6021C51.4708 81.4208 40.798 87.5635 40.798 87.5635L43.6081 94.5703C43.6081 94.5703 45.8102 100.213 46.8504 101.982C47.8907 103.751 49.5929 106.964 52.1868 108.449L54.7807 109.934C54.7807 109.934 62.4678 113.16 65.44 113.862C68.4121 114.565 72.8839 115.145 72.8839 115.145L82.4894 115.051H82.5029Z" fill="#FFC346"/>
<path d="M32.8813 12.8114C32.8813 12.8114 35.6643 20.2367 36.2317 24.7323" stroke="#AB623F" stroke-width="2" stroke-linecap="round" stroke-linejoin="round"/>
<path d="M42.784 7.34375C42.784 7.34375 44.6213 15.0525 44.6213 19.5887" stroke="#AB623F" stroke-width="2" stroke-linecap="round" stroke-linejoin="round"/>
<path d="M55.5913 3.5636C55.5913 3.5636 56.4289 11.1239 56.0236 15.5115" stroke="#AB623F" stroke-width="1.81" stroke-linecap="round" stroke-linejoin="round"/>
<path d="M64.7645 2.13257C64.7645 2.13257 66.2641 10.0169 66.6559 14.8095" stroke="#AB623F" stroke-width="1.41" stroke-linecap="round" stroke-linejoin="round"/>
</svg>
